<svg xmlns="http://www.w3.org/2000/svg" width="232" height="67" viewBox="0 0 232 67" fill="none">
  <path d="M230.635 59.2727C230.635 62.8432 227.683 65.7354 224.031 65.7354H7.902C4.25188 65.7354 1.28906 62.8432 1.28906 59.2727V7.7348C1.28906 4.16598 4.25188 1.26367 7.902 1.26367H224.029C227.683 1.26367 230.634 4.16598 230.634 7.7348L230.635 59.2727Z" fill="black"/>
  <path d="M223.333 1.34209C227.31 1.34209 230.547 4.49738 230.547 8.375V58.625C230.547 62.5026 227.31 65.6579 223.333 65.6579H8.58974C4.61269 65.6579 1.37651 62.5026 1.37651 58.625V8.375C1.37651 4.49738 4.61269 1.34209 8.58974 1.34209H223.333ZM223.333 1.17882e-06H8.58974C3.86753 1.17882e-06 0 3.77085 0 8.375V58.625C0 63.2292 3.86753 67 8.58974 67H223.333C228.056 67 231.923 63.2292 231.923 58.625V8.375C231.923 3.77085 228.056 1.17882e-06 223.333 1.17882e-06Z" fill="#A6A6A6"/>
  <path d="M51.7591 33.1368C51.7093 27.7383 56.2928 25.1119 56.5023 24.9896C53.9065 21.2996 49.8831 20.7954 48.4692 20.7552C45.09 20.4085 41.8122 22.7267 40.0908 22.7267C38.335 22.7267 35.6842 20.7887 32.8273 20.8457C29.1509 20.901 25.7115 22.9763 23.8252 26.199C19.9324 32.77 22.8357 42.4264 26.5654 47.7378C28.4311 50.3391 30.6111 53.2435 33.4647 53.1414C36.2563 53.0291 37.2991 51.4061 40.668 51.4061C44.006 51.4061 44.9852 53.1414 47.8954 53.076C50.8915 53.0291 52.7778 50.463 54.5782 47.8383C56.7343 44.8568 57.6001 41.9205 57.6345 41.7698C57.564 41.7463 51.8158 39.6074 51.7591 33.1368Z" fill="white"/>
  <path d="M46.2616 17.2612C47.7631 15.4304 48.7905 12.9397 48.5053 10.4121C46.3321 10.5059 43.6143 11.8777 42.0492 13.6683C40.6646 15.2462 39.4276 17.8324 39.7472 20.2645C42.1884 20.442 44.6949 19.0635 46.2616 17.2612Z" fill="white"/>
  <path d="M84.2655 16.7668C84.2655 18.7383 83.659 20.2223 82.4479 21.2189C81.3261 22.1385 79.7318 22.5991 77.6668 22.5991C76.6429 22.5991 75.7668 22.5556 75.0332 22.4685V11.6965C75.9901 11.5458 77.0209 11.4688 78.1341 11.4688C80.1012 11.4688 81.5837 11.8858 82.5836 12.72C83.7037 13.663 84.2655 15.0114 84.2655 16.7668ZM82.3671 16.8154C82.3671 15.5373 82.0201 14.5574 81.3261 13.874C80.632 13.1923 79.6184 12.8506 78.2836 12.8506C77.7166 12.8506 77.2339 12.8875 76.8336 12.9645V21.1536C77.0552 21.1871 77.4607 21.2022 78.0499 21.2022C79.4277 21.2022 80.4911 20.8287 81.2402 20.0816C81.9892 19.3346 82.3671 18.2458 82.3671 16.8154Z" fill="white"/>
  <path d="M94.3322 18.4888C94.3322 19.7031 93.9765 20.6981 93.2653 21.4786C92.5197 22.281 91.5319 22.6813 90.2984 22.6813C89.1096 22.6813 88.163 22.2977 87.4569 21.5272C86.7526 20.7584 86.4004 19.7886 86.4004 18.6194C86.4004 17.3967 86.7629 16.3933 87.4913 15.6145C88.2197 14.8356 89.1989 14.4453 90.4324 14.4453C91.6212 14.4453 92.5764 14.8289 93.2997 15.5977C93.9869 16.3448 94.3322 17.3096 94.3322 18.4888ZM92.4648 18.5457C92.4648 17.8171 92.3033 17.1923 91.982 16.6714C91.6041 16.0416 91.0663 15.7267 90.3671 15.7267C89.6439 15.7267 89.0941 16.0416 88.7162 16.6714C88.3932 17.1923 88.2334 17.8271 88.2334 18.5775C88.2334 19.3062 88.3949 19.9309 88.7162 20.4519C89.1062 21.0817 89.649 21.3966 90.35 21.3966C91.0371 21.3966 91.5766 21.0766 91.9648 20.4351C92.2981 19.9041 92.4648 19.2743 92.4648 18.5457Z" fill="white"/>
  <path d="M107.827 14.6055L105.293 22.5014H103.644L102.594 19.0727C102.328 18.2168 102.112 17.3659 101.943 16.5217H101.911C101.754 17.3893 101.538 18.2385 101.26 19.0727L100.145 22.5014H98.4765L96.0938 14.6055H97.944L98.8596 18.3591C99.0813 19.2469 99.2634 20.0928 99.4094 20.8934H99.442C99.576 20.2335 99.7976 19.3926 100.11 18.3759L101.26 14.6071H102.727L103.828 18.2955C104.094 19.195 104.311 20.0609 104.477 20.8951H104.527C104.649 20.0827 104.833 19.2167 105.077 18.2955L106.06 14.6071H107.827V14.6055Z" fill="white"/>
  <path d="M117.161 22.5012H115.361V17.9787C115.361 16.5851 114.818 15.8883 113.729 15.8883C113.194 15.8883 112.763 16.0793 112.428 16.4629C112.097 16.8464 111.928 17.2987 111.928 17.8163V22.4996H110.128V16.8615C110.128 16.1681 110.105 15.416 110.062 14.6019H111.645L111.729 15.8364H111.779C111.988 15.4528 112.301 15.1363 112.712 14.8833C113.199 14.5885 113.746 14.4395 114.344 14.4395C115.1 14.4395 115.728 14.6773 116.228 15.1547C116.85 15.7393 117.161 16.6119 117.161 17.771V22.5012V22.5012Z" fill="white"/>
  <path d="M122.127 22.5014H120.328V10.9824H122.127V22.5014Z" fill="white"/>
  <path d="M132.725 18.4888C132.725 19.7031 132.369 20.6981 131.658 21.4786C130.912 22.281 129.923 22.6813 128.691 22.6813C127.5 22.6813 126.554 22.2977 125.85 21.5272C125.145 20.7584 124.793 19.7886 124.793 18.6194C124.793 17.3967 125.155 16.3933 125.884 15.6145C126.612 14.8356 127.592 14.4453 128.823 14.4453C130.014 14.4453 130.967 14.8289 131.692 15.5977C132.379 16.3448 132.725 17.3096 132.725 18.4888ZM130.856 18.5457C130.856 17.8171 130.694 17.1923 130.373 16.6714C129.997 16.0416 129.457 15.7267 128.76 15.7267C128.035 15.7267 127.485 16.0416 127.109 16.6714C126.786 17.1923 126.626 17.8271 126.626 18.5775C126.626 19.3062 126.788 19.9309 127.109 20.4519C127.499 21.0817 128.042 21.3966 128.743 21.3966C129.43 21.3966 129.967 21.0766 130.356 20.4351C130.691 19.9041 130.856 19.2743 130.856 18.5457Z" fill="white"/>
  <path d="M141.439 22.5021H139.823L139.689 21.5925H139.639C139.086 22.3178 138.297 22.6813 137.273 22.6813C136.509 22.6813 135.891 22.4418 135.425 21.9661C135.002 21.5339 134.791 20.9962 134.791 20.3581C134.791 19.3933 135.203 18.6579 136.033 18.1487C136.861 17.6395 138.026 17.39 139.526 17.4017V17.2543C139.526 16.2141 138.966 15.6949 137.844 15.6949C137.045 15.6949 136.341 15.8908 135.732 16.2794L135.367 15.127C136.119 14.6731 137.048 14.4453 138.144 14.4453C140.261 14.4453 141.323 15.5341 141.323 17.7116V20.6194C141.323 21.4083 141.362 22.0364 141.439 22.5021ZM139.57 19.7886V18.5708C137.584 18.5373 136.591 19.0683 136.591 20.1621C136.591 20.5741 136.705 20.8823 136.937 21.0884C137.169 21.2944 137.464 21.3966 137.816 21.3966C138.211 21.3966 138.581 21.2743 138.918 21.0314C139.256 20.7869 139.464 20.477 139.541 20.0968C139.56 20.0113 139.57 19.9075 139.57 19.7886Z" fill="white"/>
  <path d="M151.668 22.5014H150.071L149.986 21.2334H149.937C149.426 22.1982 148.557 22.6806 147.336 22.6806C146.36 22.6806 145.547 22.3071 144.903 21.56C144.259 20.813 143.938 19.8432 143.938 18.6522C143.938 17.3742 144.286 16.3391 144.987 15.5485C145.666 14.8115 146.497 14.443 147.487 14.443C148.574 14.443 149.335 14.7997 149.768 15.515H149.803V10.9824H151.605V20.3741C151.605 21.143 151.625 21.8515 151.668 22.5014ZM149.803 19.1715V17.8549C149.803 17.6271 149.785 17.4429 149.753 17.3022C149.651 16.8801 149.433 16.525 149.102 16.2386C148.767 15.9521 148.363 15.8081 147.897 15.8081C147.226 15.8081 146.7 16.0677 146.313 16.5886C145.93 17.1096 145.736 17.7745 145.736 18.5869C145.736 19.3675 145.92 20.0006 146.289 20.488C146.679 21.0073 147.205 21.2669 147.863 21.2669C148.454 21.2669 148.926 21.0508 149.285 20.617C149.632 20.2167 149.803 19.7343 149.803 19.1715Z" fill="white"/>
  <path d="M167.067 18.4888C167.067 19.7031 166.711 20.6981 166 21.4786C165.254 22.281 164.268 22.6813 163.033 22.6813C161.846 22.6813 160.899 22.2977 160.191 21.5272C159.487 20.7584 159.135 19.7886 159.135 18.6194C159.135 17.3967 159.497 16.3933 160.226 15.6145C160.954 14.8356 161.933 14.4453 163.169 14.4453C164.356 14.4453 165.313 14.8289 166.034 15.5977C166.721 16.3448 167.067 17.3096 167.067 18.4888ZM165.201 18.5457C165.201 17.8171 165.039 17.1923 164.718 16.6714C164.338 16.0416 163.802 15.7267 163.102 15.7267C162.38 15.7267 161.83 16.0416 161.451 16.6714C161.128 17.1923 160.968 17.8271 160.968 18.5775C160.968 19.3062 161.129 19.9309 161.451 20.4519C161.841 21.0817 162.383 21.3966 163.084 21.3966C163.772 21.3966 164.313 21.0766 164.701 20.4351C165.032 19.9041 165.201 19.2743 165.201 18.5457Z" fill="white"/>
  <path d="M176.749 22.5012H174.95V17.9787C174.95 16.5851 174.408 15.8883 173.317 15.8883C172.782 15.8883 172.351 16.0793 172.018 16.4629C171.685 16.8464 171.518 17.2987 171.518 17.8163V22.4996H169.716V16.8615C169.716 16.1681 169.695 15.416 169.652 14.6019H171.233L171.317 15.8364H171.367C171.578 15.4528 171.891 15.1363 172.3 14.8833C172.789 14.5885 173.334 14.4395 173.933 14.4395C174.688 14.4395 175.316 14.6773 175.816 15.1547C176.44 15.7393 176.749 16.6119 176.749 17.771V22.5012V22.5012Z" fill="white"/>
  <path d="M188.866 15.92H186.883V19.7557C186.883 20.7306 187.235 21.218 187.933 21.218C188.256 21.218 188.524 21.1912 188.735 21.1359L188.782 22.4676C188.426 22.5982 187.959 22.6635 187.383 22.6635C186.672 22.6635 186.119 22.4525 185.719 22.0304C185.317 21.6083 185.117 20.8981 185.117 19.9015V15.92H183.934V14.6051H185.117V13.1579L186.882 12.6387V14.6034H188.864V15.92H188.866Z" fill="white"/>
  <path d="M198.395 22.5014H196.593V18.0124C196.593 16.597 196.05 15.8885 194.962 15.8885C194.127 15.8885 193.557 16.2989 193.244 17.1196C193.191 17.2921 193.16 17.5032 193.16 17.7511V22.4997H191.361V10.9824H193.16V15.7411H193.194C193.761 14.8751 194.574 14.443 195.627 14.443C196.373 14.443 196.989 14.6808 197.479 15.1582C198.089 15.7528 198.395 16.6372 198.395 17.8064V22.5014V22.5014Z" fill="white"/>
  <path d="M208.227 18.18C208.227 18.4949 208.203 18.7596 208.16 18.9756H202.761C202.785 19.7562 203.043 20.3508 203.542 20.7629C203.999 21.1314 204.589 21.3156 205.31 21.3156C206.109 21.3156 206.837 21.1917 207.494 20.9421L207.775 22.1615C207.008 22.4864 206.104 22.6489 205.058 22.6489C203.804 22.6489 202.816 22.2888 202.101 21.5685C201.383 20.8483 201.027 19.8818 201.027 18.6691C201.027 17.4782 201.359 16.4866 202.027 15.696C202.725 14.8518 203.668 14.4297 204.858 14.4297C206.023 14.4297 206.908 14.8518 207.506 15.696C207.988 16.366 208.227 17.1951 208.227 18.18ZM206.509 17.7261C206.523 17.2052 206.405 16.7563 206.161 16.3777C205.848 15.8903 205.372 15.6457 204.728 15.6457C204.14 15.6457 203.661 15.8836 203.295 16.361C202.996 16.7412 202.819 17.1951 202.761 17.7261H206.509Z" fill="white"/>
  <path d="M92.1586 52.7675H88.2571L86.12 46.2199H78.6916L76.6558 52.7675H72.8574L80.2171 30.4766H84.7628L92.1586 52.7675ZM85.4758 43.4729L83.5431 37.6523C83.3386 37.0576 82.9555 35.6573 82.3903 33.453H82.3216C82.0965 34.4011 81.7341 35.8014 81.2359 37.6523L79.3375 43.4729H85.4758V43.4729Z" fill="white"/>
  <path d="M111.085 44.5323C111.085 47.2659 110.327 49.4266 108.812 51.0128C107.455 52.4249 105.769 53.13 103.757 53.13C101.586 53.13 100.026 52.3696 99.0761 50.8487H99.0074V59.3158H95.3447V41.9846C95.3447 40.266 95.2983 38.5023 95.209 36.6933H98.4301L98.6346 39.2409H98.7033C99.9248 37.3214 101.778 36.3633 104.266 36.3633C106.211 36.3633 107.834 37.112 109.133 38.6111C110.435 40.1119 111.085 42.0851 111.085 44.5323ZM107.353 44.6629C107.353 43.0985 106.992 41.8087 106.267 40.7937C105.475 39.7351 104.412 39.2058 103.079 39.2058C102.175 39.2058 101.354 39.5006 100.621 40.0818C99.8852 40.668 99.4042 41.4335 99.1792 42.3816C99.0658 42.8238 99.0091 43.1856 99.0091 43.4703V46.1503C99.0091 47.3195 99.3767 48.306 100.112 49.1117C100.847 49.9174 101.802 50.3194 102.978 50.3194C104.357 50.3194 105.431 49.8001 106.199 48.765C106.968 47.7282 107.353 46.3614 107.353 44.6629Z" fill="white"/>
  <path d="M130.046 44.5323C130.046 47.2659 129.288 49.4266 127.771 51.0128C126.416 52.4249 124.73 53.13 122.719 53.13C120.547 53.13 118.987 52.3696 118.039 50.8487H117.97V59.3158H114.308V41.9846C114.308 40.266 114.261 38.5023 114.172 36.6933H117.393L117.597 39.2409H117.666C118.886 37.3214 120.74 36.3633 123.229 36.3633C125.172 36.3633 126.795 37.112 128.098 38.6111C129.395 40.1119 130.046 42.0851 130.046 44.5323ZM126.314 44.6629C126.314 43.0985 125.952 41.8087 125.227 40.7937C124.435 39.7351 123.375 39.2058 122.04 39.2058C121.135 39.2058 120.315 39.5006 119.58 40.0818C118.845 40.668 118.365 41.4335 118.14 42.3816C118.029 42.8238 117.97 43.1856 117.97 43.4703V46.1503C117.97 47.3195 118.338 48.306 119.07 49.1117C119.805 49.9157 120.76 50.3194 121.939 50.3194C123.318 50.3194 124.392 49.8001 125.16 48.765C125.93 47.7282 126.314 46.3614 126.314 44.6629Z" fill="white"/>
  <path d="M151.246 46.5168C151.246 48.4129 150.571 49.9556 149.215 51.1465C147.726 52.448 145.652 53.0979 142.988 53.0979C140.528 53.0979 138.555 52.6356 137.062 51.7093L137.911 48.7328C139.519 49.6809 141.284 50.1566 143.206 50.1566C144.585 50.1566 145.659 49.8517 146.43 49.2454C147.198 48.639 147.581 47.825 147.581 46.8099C147.581 45.9054 147.265 45.1433 146.631 44.5252C146.001 43.9072 144.948 43.3326 143.477 42.8017C139.475 41.3461 137.475 39.2138 137.475 36.4099C137.475 34.5774 138.176 33.0749 139.579 31.9058C140.978 30.735 142.843 30.1504 145.176 30.1504C147.257 30.1504 148.985 30.5038 150.365 31.209L149.449 34.1201C148.16 33.4367 146.704 33.095 145.073 33.095C143.785 33.095 142.778 33.4049 142.057 34.0213C141.447 34.5724 141.141 35.2441 141.141 36.0397C141.141 36.9207 141.49 37.6494 142.191 38.2222C142.8 38.7515 143.909 39.3244 145.517 39.9424C147.484 40.7146 148.928 41.6174 149.858 42.6526C150.784 43.6844 151.246 44.9758 151.246 46.5168Z" fill="white"/>
  <path d="M163.356 39.3744H159.319V47.1782C159.319 49.1631 160.03 50.1547 161.456 50.1547C162.111 50.1547 162.653 50.0994 163.083 49.9889L163.184 52.7007C162.463 52.9637 161.513 53.096 160.336 53.096C158.889 53.096 157.759 52.6655 156.943 51.8062C156.13 50.9453 155.722 49.5014 155.722 47.473V39.371H153.316V36.691H155.722V33.7481L159.319 32.6895V36.691H163.356V39.3744Z" fill="white"/>
  <path d="M181.569 44.5998C181.569 47.0704 180.844 49.0989 179.397 50.6851C177.88 52.3182 175.867 53.1323 173.357 53.1323C170.938 53.1323 169.012 52.35 167.576 50.7856C166.14 49.2211 165.422 47.2463 165.422 44.8661C165.422 42.3754 166.161 40.3353 167.643 38.749C169.122 37.1611 171.119 36.3672 173.629 36.3672C176.047 36.3672 177.994 37.1494 179.463 38.7155C180.868 40.2348 181.569 42.1962 181.569 44.5998ZM177.769 44.7154C177.769 43.233 177.444 41.9617 176.786 40.9014C176.018 39.6184 174.92 38.9785 173.498 38.9785C172.026 38.9785 170.907 39.62 170.139 40.9014C169.481 41.9634 169.157 43.2548 169.157 44.7824C169.157 46.2648 169.481 47.5361 170.139 48.5947C170.931 49.8777 172.038 50.5176 173.465 50.5176C174.864 50.5176 175.961 49.8643 176.753 48.5612C177.429 47.4808 177.769 46.1961 177.769 44.7154Z" fill="white"/>
  <path d="M193.476 39.8339C193.114 39.7686 192.727 39.7351 192.322 39.7351C191.033 39.7351 190.037 40.2091 189.336 41.1588C188.726 41.9963 188.42 43.0549 188.42 44.3329V52.7666H184.759L184.794 41.7551C184.794 39.9026 184.747 38.2158 184.656 36.6949H187.846L187.98 39.7702H188.082C188.468 38.7133 189.078 37.8624 189.913 37.2242C190.729 36.6497 191.611 36.3633 192.561 36.3633C192.899 36.3633 193.205 36.3867 193.476 36.4286V39.8339Z" fill="white"/>
  <path d="M209.856 43.9703C209.856 44.6102 209.813 45.1495 209.722 45.59H198.734C198.777 47.1779 199.308 48.3923 200.328 49.2298C201.254 49.9785 202.451 50.3537 203.922 50.3537C205.549 50.3537 207.033 50.1008 208.368 49.5933L208.942 52.0723C207.382 52.7356 205.54 53.0656 203.415 53.0656C200.859 53.0656 198.852 52.3319 197.392 50.8663C195.935 49.4007 195.205 47.4325 195.205 44.9636C195.205 42.5399 195.884 40.5215 197.243 38.9118C198.665 37.1933 200.587 36.334 203.006 36.334C205.382 36.334 207.181 37.1933 208.402 38.9118C209.37 40.2769 209.856 41.9653 209.856 43.9703ZM206.363 43.044C206.387 41.9854 206.148 41.0709 205.652 40.2987C205.018 39.3054 204.044 38.8096 202.733 38.8096C201.536 38.8096 200.562 39.2937 199.818 40.2652C199.208 41.0374 198.845 41.9637 198.734 43.0424H206.363V43.044Z" fill="white"/>
</svg>