<svg width="89" height="89" viewBox="0 0 89 89" fill="none" xmlns="http://www.w3.org/2000/svg">
<g id="office-svgrepo-com (1) 1">
<path id="Vector" d="M77.875 83.4375V22.25H61.1875V5.5625H11.125V83.4375H0V89H38.9375V72.3125H50.0625V89H89V83.4375H77.875ZM33.375 61.1875H22.25V50.0625H33.375V61.1875ZM33.375 44.5H22.25V33.375H33.375V44.5ZM33.375 27.8125H22.25V16.6875H33.375V27.8125ZM50.0625 61.1875H38.9375V50.0625H50.0625V61.1875ZM50.0625 44.5H38.9375V33.375H50.0625V44.5ZM50.0625 27.8125H38.9375V16.6875H50.0625V27.8125ZM72.3125 61.1875H61.1875V50.0625H72.3125V61.1875ZM72.3125 44.5H61.1875V33.375H72.3125V44.5Z" fill="#FF0000"/>
</g>
</svg>
