<svg width="396" height="352" viewBox="0 0 396 352" fill="none" xmlns="http://www.w3.org/2000/svg">
<rect width="396" height="352" rx="15" fill="white"/>
<path d="M278.76 95.1374C279.434 92.4245 278.729 89.9108 277.181 89.5123C275.633 89.1292 273.809 91.0144 273.135 93.7273C272.46 96.4402 273.165 98.9693 274.713 99.3524C276.261 99.7509 278.07 97.8657 278.76 95.1374Z" fill="#E59673"/>
<path opacity="0.3" d="M277.87 95.0916C278.437 92.7925 277.839 90.662 276.537 90.3401C275.218 90.0183 273.686 91.6123 273.119 93.8961C272.551 96.1951 273.149 98.3256 274.452 98.6475C275.77 98.9847 277.303 97.3907 277.87 95.0916Z" fill="#673B00"/>
<path d="M250.68 94.217C249.822 91.55 248.412 90.4158 246.895 90.9063C245.362 91.3968 244.304 93.328 245.163 95.9796C246.021 98.6465 247.952 100.409 249.469 99.9187C250.987 99.4436 251.523 96.8839 250.68 94.217Z" fill="#E59673"/>
<path opacity="0.3" d="M250.987 94.5233C250.297 92.3775 249.163 91.4578 247.922 91.8563C246.695 92.2548 245.837 93.8029 246.527 95.9487C247.217 98.0945 248.78 99.5199 250.006 99.1214C251.248 98.7383 251.677 96.6691 250.987 94.5233Z" fill="#673B00"/>
<path opacity="0.3" d="M350 281.838C306.302 276.857 75.0297 266.618 46 275.508C70.7841 283.785 328.756 290.575 350 281.838Z" fill="#431F00"/>
<path d="M274.453 276.796L274.468 276.52L270.008 274.466L270.498 262.173L266.283 260.641L266.774 251.414L264.045 250.908L264.398 235.673L258.451 230.691L253.868 231.289L253.27 235.673L250.588 235.489L250.144 230.415L243.691 228.208L243.308 219.962L239.292 218.43L235.276 219.196L235.046 226.829L229.59 227.335L229.099 217.081L223.152 212.988L223.398 199.148L212.669 196.205L199.104 209.402L197.219 273.638C223.903 274.481 250.649 275.6 274.453 276.796Z" fill="#B28869"/>
<path opacity="0.5" d="M213.572 275.216C193.033 272.503 83.1373 270.112 69.4961 274.94C81.1448 279.446 203.594 279.967 213.572 275.216Z" fill="#431F00"/>
<path d="M60.8223 236.683L99.4315 226.414L117.533 245.129L112.092 275.293H68.6545L60.8223 236.683Z" fill="#A8693F"/>
<g opacity="0.8">
<path d="M60.8223 236.684L68.6545 275.293L98.8797 273.469L98.9257 226.553L60.8223 236.684Z" fill="#F2E3A5"/>
<path opacity="0.2" d="M70.5236 234.123L62.86 249.067L60.1777 236.422L70.5236 234.123Z" fill="#431F00"/>
<path opacity="0.3" d="M90.2656 228.759L98.4963 238.139L106.926 230.874L99.4313 226.414L90.2656 228.759Z" fill="#431F00"/>
<path opacity="0.3" d="M90.4492 273.974L98.6953 260.363L106.16 274.158L98.496 275.323L90.4492 273.974Z" fill="#431F00"/>
</g>
<path d="M147.666 160.047L150.609 103.842L169.768 95.4121L201.572 107.674L198.767 181.505L147.666 160.047Z" fill="#96744B"/>
<path opacity="0.3" d="M199.272 168.142L201.571 107.676L170.027 95.5059L168.111 162.593L199.272 168.142Z" fill="#431F00"/>
<path d="M111.201 144.751L127.448 135.678L140.721 143.019L142.469 172.54L114.527 175.605L111.201 144.751Z" fill="#96744B"/>
<path opacity="0.3" d="M113.287 145.396L120.399 157.673L116.199 174.732L121.61 160.048L127.419 173.184L122.315 157.366L124.231 139.617L121.288 155.42L113.287 145.396Z" fill="#431F00"/>
<path opacity="0.3" d="M142.286 169.597L140.723 143.02L127.68 135.801L126.975 170.011L142.286 169.597Z" fill="#431F00"/>
<path d="M103.477 276.274L206.553 275.508L215.366 162.347L159.421 149.059L98.8789 159.282L103.477 276.274Z" fill="url(#paint0_linear_662_279)"/>
<path d="M100.596 160.369L103.477 276.273L155.207 274.557L159.422 148.797L100.596 160.369Z" fill="#F2E3A5"/>
<path d="M247.553 267.077L247.369 276.089H251.768L250.435 266.311L247.553 267.077Z" fill="#673B00"/>
<path d="M278.774 267.262L278.59 276.275L281.272 276.091L281.502 266.496L278.774 267.262Z" fill="#673B00"/>
<path d="M287.91 185.735C287.512 179.666 287.129 164.369 283.849 150.023C283.511 144.75 283.588 135.999 285.673 123.231C259.708 110.28 242.68 123.66 242.68 123.66L247.354 154.422C245.27 172.477 244.734 190.793 244.825 190.793L246.527 271.108L252.198 270.142L262.115 191.974C266.513 191.728 263.387 192.035 267.862 191.59L278.178 270.602H283.052L287.91 185.919C287.91 185.919 287.91 185.919 287.926 185.919C287.926 185.889 287.926 185.858 287.926 185.827L287.91 185.735Z" fill="url(#paint1_linear_662_279)"/>
<path d="M283.725 147.402C283.572 142.022 283.894 134.083 285.672 123.216C284.032 122.388 282.407 121.683 280.844 121.055L280.445 144.398L283.725 147.402Z" fill="#7EB7C4"/>
<path opacity="0.3" d="M280.23 270.602H283.035L287.894 185.919C287.894 185.919 287.894 185.919 287.909 185.919C287.909 185.888 287.909 185.858 287.909 185.827V185.735H287.894C287.511 179.666 287.127 164.369 283.847 150.023C283.25 145.808 284.46 132.657 284.46 132.657C284.46 132.657 283.05 132.335 281.656 133.868C281.349 143.463 281.211 160.215 281.104 179.727C281.104 180.861 276.49 178.194 276.49 179.344C276.475 181.045 281.073 186.609 281.058 188.356C280.889 215.547 280.736 246.584 280.23 270.602Z" fill="#431F00"/>
<path d="M275.233 128.275L277.532 119.937C266.328 116.09 258.174 117.346 251.936 119.232L254.051 128.75L275.233 128.275Z" fill="#7EB7C4"/>
<path d="M269.301 120.794C269.301 118.894 266.512 117.346 263.078 117.346C259.645 117.346 256.855 118.894 256.855 120.794C257.53 122.511 260.212 124.243 263.661 124.243C267.109 124.243 268.336 122.818 269.301 120.794Z" fill="#597B84"/>
<path opacity="0.3" d="M264.733 122.557L285.67 123.201C285.67 123.201 270.68 113.744 253.115 118.848C260.196 117.346 263.262 121.974 264.733 122.557Z" fill="#431F00"/>
<path d="M258.496 120.304C258.496 120.304 255.247 104.486 261.531 103.26C265.991 104.072 265.485 100.317 267.922 120.595C263.83 125.009 258.496 120.304 258.496 120.304Z" fill="#FFB38A"/>
<path opacity="0.3" d="M258.022 117.317L264.736 122.558L266.774 121.792L267.954 120.704L266.897 113.102L257.256 113.684L258.022 117.317Z" fill="#673B00"/>
<path d="M278.023 148.905L282.514 144.276L279.74 143.602L278.023 148.905Z" fill="#2D464C"/>
<path d="M276.919 137.808C276.919 137.808 281.242 136.598 281.18 142.468C281.119 148.2 278.881 146.805 276.751 144.476C274.62 142.146 274.881 138.713 276.919 137.808Z" fill="#FFB38A"/>
<path d="M251.492 133.073L279.296 131.693L274.498 162.915L254.772 160.876L251.492 133.073Z" fill="#EAD67F"/>
<path opacity="0.3" d="M253.684 137.686L254.45 160.876L274.498 162.915L279.295 131.693L278.023 133.916L253.684 137.686Z" fill="#673B00"/>
<path d="M274.942 96.2254C275.126 95.2598 275.233 94.2636 275.233 93.2213C275.54 78.3079 268.658 74.3535 261.853 74.3535C255.047 74.3535 249.376 83.2586 249.376 91.9951C249.376 93.5585 249.192 93.2979 249.53 94.7387C248.074 100.134 245.774 116.105 260.473 116.105C271.31 114.955 274.375 112.012 274.942 96.2254Z" fill="#E59673"/>
<path d="M271.692 93.5884C271.708 82.9054 266.757 74.2302 260.626 74.2149C254.495 74.1995 248.61 80.5297 250.617 94.2628C247.675 114.955 254.955 114.679 261.086 114.694C273.654 111.889 271.677 104.272 271.692 93.5884Z" fill="#FFB38A"/>
<path d="M249.101 84.7462C247.476 85.9111 246.725 87.9342 247.154 89.8961L248.641 96.5175L249.744 96.1496L250.909 83.4434L249.101 84.7462Z" fill="#673B00"/>
<path d="M274.851 84.7447C275.939 85.7563 276.522 87.197 276.445 88.6838L276.031 96.4087L274.882 96.2248L272.414 82.4609L274.851 84.7447Z" fill="#673B00"/>
<path d="M275.402 85.9566L278.33 71.5338L261.608 66.0312L248.15 71.3192L249.775 84.6998L262.343 82.4774L275.402 85.9566Z" fill="#7EB7C4"/>
<path opacity="0.3" d="M275.739 84.3013L278.345 71.5184L261.638 66.0312L261.102 79.9484C261.086 79.9637 271.156 83.0138 275.739 84.3013Z" fill="#431F00"/>
<path d="M249.776 84.6986L245.837 81.8631C245.331 81.4952 245.055 80.8821 245.132 80.2537C245.208 79.6253 245.622 79.1042 246.205 78.8589L253.271 76.0387C255.34 75.211 257.639 75.1497 259.754 75.8855L275.495 81.3266C276.154 81.5565 276.691 82.0623 276.936 82.7214C277.181 83.3804 277.135 84.1162 276.783 84.7292L275.541 86.921L263.356 83.7943C260.965 83.1812 258.451 83.0892 256.029 83.5337L249.776 84.6986Z" fill="#7EB7C4"/>
<path d="M249.776 85.3431L245.837 82.5076C245.331 82.1397 245.055 81.5266 245.132 80.8982C245.208 80.2698 245.622 79.7487 246.205 79.5034L253.271 76.6832C255.34 75.8556 257.639 75.7943 259.754 76.53L275.495 81.9712C276.154 82.2011 276.691 82.7069 276.936 83.3659C277.181 84.025 277.135 84.7607 276.783 85.3738L275.541 87.5656L263.356 84.4388C260.965 83.8257 258.451 83.7338 256.029 84.1783L249.776 85.3431Z" fill="#597B84"/>
<path d="M251.644 275.508C246.786 274.481 245.514 273.976 230.125 281.455C230.248 283.846 251.767 277.899 251.644 275.508Z" fill="#423321"/>
<path d="M280.322 274.435C277.625 273.163 275.908 281.639 277.15 285.394C284.844 283.172 282.775 275.585 280.322 274.435Z" fill="#423321"/>
<path d="M257.576 95.9041C257.576 94.7699 257.239 94.3867 256.749 94.3867C256.258 94.3867 255.783 94.7699 255.783 95.9041C255.783 97.0384 256.182 97.9426 256.672 97.9426C257.178 97.958 257.576 97.0384 257.576 95.9041Z" fill="#4C3F32"/>
<path d="M269.715 95.3971C269.715 94.2628 269.317 93.8184 268.826 93.8184C268.336 93.8184 267.938 94.2782 267.938 95.3971C267.938 96.5313 268.336 97.4356 268.826 97.4356C269.317 97.4356 269.715 96.5313 269.715 95.3971Z" fill="#4C3F32"/>
<path d="M262.405 95.2755C260.995 95.2449 261.332 99.9197 261.286 101.728C261.24 103.537 264.106 103.935 265.455 103.706C269.026 102.326 263.846 99.7511 262.405 95.2755Z" fill="#EA5D49"/>
<path d="M266.268 89.5117C266.268 89.5117 271.295 90.5233 272.092 90.2474C272.904 89.9562 272.966 92.5465 271.663 92.6385C270.36 92.7458 266.452 93.1443 266.268 89.5117Z" fill="#673B00"/>
<path d="M258.65 89.2676C258.65 89.2676 253.883 90.9383 253.055 90.7697C252.228 90.6011 252.519 93.1607 253.806 93.0841C255.094 92.9921 258.972 92.8848 258.65 89.2676Z" fill="#673B00"/>
<path opacity="0.3" d="M170.656 172.555C170.656 172.555 175.132 206.152 177.431 208.834L193.908 211.133C193.908 211.133 188.543 193.89 187.01 178.18C182.918 176.908 170.656 172.555 170.656 172.555Z" fill="#431F00"/>
<path d="M170.412 170.516C170.412 170.516 169.768 201.553 174.75 206.918L189.571 209.094C189.571 209.094 185.356 184.831 187.149 177.673C183.057 176.386 170.412 170.516 170.412 170.516Z" fill="#FFF8CB"/>
<path d="M248.55 120.441C244.749 122.005 242.68 123.645 242.68 123.645L247.293 154.039L249.47 152.506L248.55 120.441Z" fill="#7EB7C4"/>
<path d="M156.617 154.928L127.618 208.45L102.129 168.983L127.235 215.731L156.617 157.993V154.928Z" fill="#EAD67F"/>
<path opacity="0.3" d="M262.375 110.234L266.13 109.789L264.352 111.889L262.375 110.234Z" fill="#673B00"/>
<mask id="mask0_662_279" style="mask-type:luminance" maskUnits="userSpaceOnUse" x="242" y="117" width="46" height="155">
<path d="M287.91 185.735C287.512 179.666 287.129 164.369 283.849 150.023C283.511 144.75 283.588 135.999 285.673 123.231C259.708 110.28 242.68 123.66 242.68 123.66L247.354 154.422C245.27 172.477 244.734 190.793 244.825 190.793L246.527 271.108L252.198 270.142L262.115 191.974C266.513 191.728 263.387 192.035 267.862 191.59L278.178 270.602H283.052L287.91 185.919C287.91 185.919 287.91 185.919 287.926 185.919C287.926 185.889 287.926 185.858 287.926 185.827L287.91 185.735Z" fill="white"/>
</mask>
<g mask="url(#mask0_662_279)">
<path opacity="0.3" d="M256.366 270.526L249.469 272.442L256.366 188.525L265.946 193.89L256.366 270.526Z" fill="#431F00"/>
</g>
<path d="M261.7 155.342C261.593 155.096 259.708 155.618 257.455 156.537C255.217 157.442 253.47 158.376 253.577 158.622C253.684 158.867 255.569 158.33 257.823 157.426C260.076 156.522 261.808 155.587 261.7 155.342Z" fill="#FFB38A"/>
<path d="M262.068 157.351C261.992 157.09 260.122 157.397 257.899 158.04C255.677 158.684 253.93 159.42 254.006 159.696C254.083 159.956 255.953 159.65 258.175 159.006C260.398 158.347 262.145 157.611 262.068 157.351Z" fill="#FFB38A"/>
<path d="M262.114 160.002C262.083 159.788 260.06 159.925 257.577 160.293C255.109 160.661 253.132 161.136 253.162 161.351C253.193 161.565 255.216 161.428 257.699 161.06C260.167 160.692 262.144 160.217 262.114 160.002Z" fill="#FFB38A"/>
<path d="M255.937 158.684C256.52 160.171 256.657 161.811 252.473 161.565C248.381 161.336 249.454 159.772 251.186 158.331C252.918 156.906 255.355 157.197 255.937 158.684Z" fill="#FFB38A"/>
<path d="M253.238 157.641C253.238 157.641 254.25 156.216 254.357 155.71C254.464 155.204 254.434 153.595 254.143 152.782C253.882 152.077 254.725 152.077 254.909 152.614C255.093 153.15 255.384 154.545 255.277 155.557C255.215 156.2 255.139 156.997 254.74 157.749C254.372 158.515 253.238 157.641 253.238 157.641Z" fill="#FFB38A"/>
<path d="M242.694 123.539C241.682 126.237 217.588 170.256 250.802 163.237L249.852 157.872C249.852 157.872 226.478 163.957 248.38 129.578L242.694 123.539Z" fill="#7EB7C4"/>
<path d="M278.008 148.767C278.008 148.767 316.142 182.441 285.656 123.217L281.855 128.014C281.855 128.014 304.83 166.884 282.422 144.276L278.008 148.767Z" fill="#7EB7C4"/>
<path d="M256.565 101.253C256.565 100.67 255.109 100.195 253.316 100.195C251.522 100.195 250.066 100.67 250.066 101.253C250.066 101.835 251.522 102.31 253.316 102.31C255.109 102.31 256.565 101.835 256.565 101.253Z" fill="#E59673"/>
<path d="M273.993 99.9037C273.886 99.3366 272.368 99.1374 270.59 99.4899C268.828 99.8271 267.479 100.563 267.586 101.145C267.693 101.712 269.211 101.912 270.989 101.559C272.767 101.222 274.115 100.471 273.993 99.9037Z" fill="#E59673"/>
<path opacity="0.3" d="M250.74 177.674L246.725 185.138L246.909 180.356L250.74 177.674Z" fill="#431F00"/>
<path d="M245.255 173.458L244.994 170.255L288.171 170.01L288.048 174.087L245.255 173.458Z" fill="#673B00"/>
<path opacity="0.8" d="M244.994 170.256L245.255 173.46L277.932 173.95L278.07 170.072L244.994 170.256Z" fill="#F2E3A5"/>
<path opacity="0.3" d="M245.254 172.554L245.683 173.489L245.545 174.685L287.404 176.831L287.22 174.102L288.032 174.056L288.124 172.34L245.254 172.554Z" fill="#431F00"/>
<path d="M259.309 169.366L259.554 174.225L266.972 174.608V169.105L259.309 169.366Z" fill="#EAD67F"/>
<path d="M276.031 179.207L284.461 189.675L283.449 193.124L275.402 181.506L276.031 179.207Z" fill="#77A3BC"/>
<path d="M245.377 186.994L251.125 177.031L253.945 178.564L246.664 189.799L245.377 186.994Z" fill="#77A3BC"/>
<path opacity="0.3" d="M278.008 148.767C278.008 148.767 316.142 182.441 285.656 123.217C284.844 127.11 306.501 170.241 282.422 144.276L278.008 148.767Z" fill="#431F00"/>
<path d="M130.484 160.936L132.983 168.983L142.945 167.266L145.244 158.254L130.484 160.936Z" fill="#EAD67F"/>
<path d="M131.832 161.428L133.871 168.003L142.025 166.593L143.91 159.236L131.832 161.428Z" fill="#FFF8CB"/>
<path opacity="0.7" d="M136.537 246.678L130.805 260.809L136.368 271.676L148.17 257.039L136.537 246.678ZM132.23 260.288L136.721 249.636L144.584 257.499L136.614 268.136L132.23 260.288Z" fill="#D67641"/>
<path opacity="0.7" d="M136.139 251.873L136.66 259.23L137.687 259.123L138.193 253.375L136.139 251.873Z" fill="#D67641"/>
<path opacity="0.7" d="M136.078 261.929L136.323 264.657L137.718 263.845L138.025 261.576L136.078 261.929Z" fill="#D67641"/>
<path opacity="0.7" d="M264.122 101.069C263.861 100.149 263.217 99.5362 262.665 99.6895C262.114 99.8428 261.884 100.716 262.144 101.621C262.405 102.54 263.049 103.153 263.6 103C264.152 102.862 264.382 101.989 264.122 101.069Z" fill="#FFF5E6"/>
<path d="M109.225 271.093L126.851 207.301L148.692 247.918L127.234 216.114L109.225 271.093Z" fill="#EAD67F"/>
<path opacity="0.2" d="M66.6914 265.928L78.0029 275.323L68.6533 275.293L66.6914 265.928Z" fill="#431F00"/>
<path opacity="0.3" d="M172.449 176.646L172.633 179.329L184.895 182.961L184.527 180.662L172.449 176.646Z" fill="#431F00"/>
<path opacity="0.3" d="M172.832 183.162L173.215 185.844L184.895 187.76L184.327 186.028L172.832 183.162Z" fill="#431F00"/>
<path opacity="0.3" d="M173.215 189.094L173.598 191.791L185.477 193.125L184.526 191.025L173.215 189.094Z" fill="#431F00"/>
<path opacity="0.3" d="M180.695 198.688L180.496 200.404L186.428 201.171L186.244 198.871L180.695 198.688Z" fill="#431F00"/>
<path opacity="0.6" d="M120.842 232.59C120.842 232.59 121.348 240.637 122.114 240.637C122.88 240.637 148.431 238.844 148.431 238.844L148.937 223.777L120.842 232.59ZM145.795 236.637C145.795 236.637 124.444 238.982 123.831 239.013C123.218 239.059 122.896 233.924 122.896 233.924L145.978 227.441L145.795 236.637Z" fill="#D67641"/>
<path opacity="0.6" d="M125.195 234.768L125.364 237.143L143.419 235.105L143.588 230.844L125.195 234.768Z" fill="#D67641"/>
<path opacity="0.3" d="M151.175 105.957L159.406 125.407L150.041 149.824L160.77 129.132L166.901 149.64L162.303 125.3L168.434 99.4277L161.138 122.235L151.175 105.957Z" fill="#431F00"/>
<path d="M267.677 105.59C267.033 106.862 265.271 107.766 263.155 107.766C260.948 107.766 259.109 106.755 258.557 105.391H258.189C258.251 107.138 260.443 108.533 263.155 108.533C265.761 108.533 267.876 107.23 268.091 105.59H267.677Z" fill="#4C3F32"/>
<path opacity="0.3" d="M278.023 133.916L273.348 161.198L255.477 160.815L274.498 162.915L279.295 131.693L278.023 133.916Z" fill="#431F00"/>
<path d="M285.672 123.217C285.672 123.201 285.672 123.201 285.657 123.201L285.672 123.217C279.005 119.891 272.935 118.296 267.586 117.775C267.448 116.656 267.326 115.614 267.203 114.664C272.644 112.84 276.43 108.824 276.43 104.165C276.43 103 276.169 101.283 275.725 99.2754C276.982 98.8615 278.208 97.2675 278.744 95.1371C279.419 92.4241 278.714 89.9105 277.166 89.5119C276.507 89.3433 275.817 89.6039 275.173 90.1404C275.127 89.1748 275.035 88.2704 274.913 87.3968L275.541 87.5501L276.783 85.3583C277.043 84.8985 277.135 84.362 277.058 83.8409C277.104 83.4577 277.074 83.0745 276.936 82.7067C276.798 82.3388 276.553 82.0169 276.261 81.7564L278.346 71.4872L261.609 66L248.151 71.2879L248.933 77.756L246.189 78.8596C245.607 79.0895 245.193 79.6259 245.117 80.2543C245.101 80.4382 245.117 80.6068 245.147 80.7908C245.147 80.8214 245.117 80.8521 245.117 80.8981C245.04 81.5265 245.316 82.1395 245.822 82.5074L249.761 85.3429C249.761 85.3429 249.393 89.5273 249.362 91.7497C248.626 90.922 247.768 90.6309 246.864 90.9221C245.331 91.4125 244.274 93.3438 245.132 95.9954C245.684 97.7273 246.695 99.0608 247.753 99.6586C247.431 101.391 247.308 103.26 247.155 105.498C247.155 111.169 250.88 114.817 257.823 115.584C257.899 116.442 257.991 117.239 258.099 117.913C248.933 119.124 243.4 123.094 242.741 123.584L242.695 123.538C241.729 126.098 219.934 166.025 246.373 163.88C245.086 178.349 244.733 190.779 244.81 190.764L246.511 271.078L252.182 270.113L262.114 191.974C266.513 191.729 263.387 192.036 267.862 191.591L278.177 270.603H283.051L287.91 185.92C287.91 185.92 287.91 185.92 287.925 185.92C287.925 185.889 287.925 185.859 287.925 185.828V185.736H287.91C287.558 180.218 287.205 167.052 284.676 153.932C294.01 160.339 307.575 165.811 285.672 123.217ZM244.549 135.999L247.339 154.407C247.186 155.695 247.048 156.982 246.91 158.27C241.913 158.484 233.284 156.385 244.549 135.999ZM283.695 145.533C283.68 142.084 283.848 137.747 284.416 132.474C289.565 141.747 299.452 160.952 283.695 145.533Z" fill="url(#paint2_linear_662_279)"/>
<path opacity="0.3" d="M249.914 85.4496C249.853 86.7984 249.945 89.9864 249.945 89.9864C249.945 89.9864 263.709 99.9491 276.354 93.0519C276.354 91.2586 276.614 89.2814 276.093 86.5378C277.748 83.7942 277.12 82.3228 274.116 81.6178C270.728 80.6062 262.881 77.2802 257.7 76.1307C255.279 75.4869 248.948 78.2458 245.699 79.9625C243.538 82.3842 249.531 84.5606 249.914 85.4496Z" fill="#431F00"/>
<defs>
<linearGradient id="paint0_linear_662_279" x1="106.515" y1="176.762" x2="216.106" y2="264.894" gradientUnits="userSpaceOnUse">
<stop stop-color="#EAD67F"/>
<stop offset="0.9946" stop-color="#EAB57D"/>
</linearGradient>
<linearGradient id="paint1_linear_662_279" x1="323.255" y1="184.923" x2="222.096" y2="202.805" gradientUnits="userSpaceOnUse">
<stop stop-color="#597B84"/>
<stop offset="1" stop-color="#599ABF"/>
</linearGradient>
<linearGradient id="paint2_linear_662_279" x1="223.9" y1="61.5534" x2="292.106" y2="255.826" gradientUnits="userSpaceOnUse">
<stop stop-color="#FFFCE9"/>
<stop offset="1" stop-color="#FF0000"/>
</linearGradient>
</defs>
</svg>
