<svg width="34" height="26" viewBox="0 0 34 26" fill="none" xmlns="http://www.w3.org/2000/svg">
<g id="Group">
<path id="Vector" d="M17.3155 25.2716C23.9467 25.2716 29.3224 19.8959 29.3224 13.2647C29.3224 6.63348 23.9467 1.25781 17.3155 1.25781C10.6843 1.25781 5.30859 6.63348 5.30859 13.2647C5.30859 19.8959 10.6843 25.2716 17.3155 25.2716Z" fill="#FF3333"/>
<path id="Vector_2" d="M28.7846 9.70508H26.898L26.5448 10.8937L25.1757 11.2414C25.1757 11.2414 24.3366 12.0421 24.5576 12.3511C24.7783 12.6603 23.5859 14.08 23.5859 14.08L21.9078 13.6759C21.9078 13.6759 21.7754 14.0291 21.9078 14.4708C22.0403 14.9125 21.7899 15.2647 21.849 15.8834C21.9078 16.5021 21.2897 15.9722 21.0689 16.6788C20.8482 17.3855 19.3906 17.518 19.3906 18.0479C19.3906 18.5779 19.3906 18.9753 19.3906 18.9753C19.3906 18.9753 19.6113 18.9753 20.8037 18.9753C21.9961 18.9753 23.5417 18.9753 23.5417 18.9753C23.5417 18.9753 25.0433 18.6661 25.1757 18.9753C25.3082 19.2846 26.0711 19.0196 25.8662 19.7703C25.6627 20.5159 26.1153 21.4118 26.1217 21.4237C28.1066 19.2819 29.3217 16.4163 29.3217 13.2658C29.3217 12.026 29.1336 10.8301 28.7846 9.70508Z" fill="#A1C8E4"/>
<path id="Vector_3" d="M9.61412 10.2962C10.0489 9.56753 10.2392 8.50765 10.8022 8.76176C11.3653 9.01587 10.9331 9.93187 11.9284 10.2962C12.9236 10.6605 12.5908 12.8797 13.1271 12.8797C13.6631 12.8797 14.8762 14.2376 15.0733 13.916C15.2704 13.5943 16.3004 13.6746 16.201 13.0784C16.1017 12.4822 17.3603 11.7535 16.9297 11.4886C16.4991 11.2236 15.9361 10.6937 15.7042 10.4949C15.4724 10.2962 15.7042 9.50129 15.9361 8.76176C16.1679 8.02223 15.8367 7.71274 15.4061 7.48778C14.9755 7.26282 15.1743 6.55349 15.2074 6.421C15.2405 6.28852 15.1743 5.75858 14.6443 5.22863C14.1144 4.69869 14.6443 3.73817 14.6443 3.3076C14.6443 2.87808 13.1353 2.01427 13.1276 2.00977C9.17293 3.48221 6.20632 6.97903 5.48242 11.2406C5.50998 11.2474 7.62445 11.7864 7.92307 11.7535C8.22381 11.7204 9.1793 11.0249 9.61412 10.2962Z" fill="#A1C8E4"/>
<path id="Vector_4" d="M20.9707 4.20243C20.6063 4.30179 20.2751 5.62664 20.0102 6.09034C19.7452 6.55404 19.6127 7.11711 20.1095 7.99442C20.6063 8.87174 19.6127 9.33624 18.884 10.0538C18.1554 10.7713 17.9694 10.783 17.9898 11.2406C18.0229 11.9857 18.7515 11.5222 19.1821 11.721C19.6127 11.9197 19.9439 11.6216 20.0764 10.8929C20.2089 10.1643 20.9044 10.0318 21.335 10.0538C21.7656 10.0758 22.5274 10.0649 23.2892 9.36936C24.051 8.67381 23.521 8.0445 23.8854 7.68017C24.2497 7.31583 25.0777 7.48144 25.8676 7.40115C26.3854 7.34842 26.9365 6.85982 27.2558 6.52834C26.0788 4.79517 24.4603 3.38631 22.5621 2.46289C22.348 2.633 22.1132 2.88764 21.7987 3.0763C21.3019 3.37439 21.335 4.10306 20.9707 4.20243Z" fill="#A1C8E4"/>
<path id="Vector_5" d="M15.0124 15.8827C15.0124 11.5044 11.4631 7.95508 7.08469 7.95508C6.89974 7.95508 6.71691 7.96383 6.53541 7.97628C5.75083 9.5722 5.30859 11.3666 5.30859 13.2651C5.30859 17.3229 7.32343 20.9079 10.4053 23.0812C13.1244 21.8247 15.0124 19.0751 15.0124 15.8827Z" fill="#1591E0"/>
<path id="Vector_6" d="M15.0124 15.8827C15.0124 11.5044 11.4631 7.95508 7.08469 7.95508C6.89974 7.95508 6.71691 7.96383 6.53541 7.97628C5.75083 9.5722 5.30859 11.3666 5.30859 13.2651C5.30859 17.3229 7.32343 20.9079 10.4053 23.0812C13.1244 21.8247 15.0124 19.0751 15.0124 15.8827Z" fill="#FF8A8A"/>
<path id="Vector_7" d="M20.382 1.6543L17.0195 7.12277H27.6343L25.4859 1.95557L20.683 1.7375L20.382 1.6543Z" fill="#1591E0"/>
<path id="Vector_8" d="M7.08533 22.9675C10.9984 22.9675 14.1706 19.7953 14.1706 15.8822C14.1706 11.9691 10.9984 8.79688 7.08533 8.79688C3.17221 8.79688 0 11.9691 0 15.8822C0 19.7953 3.17221 22.9675 7.08533 22.9675Z" fill="#363C50"/>
<path id="Vector_9" d="M7.08469 21.7123C10.3039 21.7123 12.9135 19.1027 12.9135 15.8835C12.9135 12.6643 10.3039 10.0547 7.08469 10.0547C3.86552 10.0547 1.25586 12.6643 1.25586 15.8835C1.25586 19.1027 3.86552 21.7123 7.08469 21.7123Z" fill="white"/>
<path id="Vector_10" d="M8.44718 7.99414H5.72461V9.52991H8.44718V7.99414Z" fill="#363C50"/>
<path id="Vector_11" d="M7.08458 3.77148C6.0822 3.77148 5.26953 4.58414 5.26953 5.58653C5.26953 6.58891 6.0822 7.40158 7.08458 7.40158C8.08697 7.40158 8.89964 6.58891 8.89964 5.58653C8.89964 4.58414 8.08697 3.77148 7.08458 3.77148ZM7.08458 6.78526C6.42269 6.78526 5.88612 6.24869 5.88612 5.5868C5.88612 4.9249 6.42269 4.38807 7.08458 4.38807C7.74648 4.38807 8.28304 4.92463 8.28304 5.5868C8.28304 6.24843 7.74648 6.78526 7.08458 6.78526Z" fill="#363C50"/>
<path id="Vector_12" d="M7.48646 6.98242H6.68359V7.99461H7.48646V6.98242Z" fill="#363C50"/>
<path id="Vector_13" d="M6.68502 11.2402C6.68502 11.2402 7.89673 16.9178 6.68502 16.9178C5.47331 16.9178 6.68502 11.2402 6.68502 11.2402Z" fill="#363C50"/>
<path id="Vector_14" d="M9.61429 13.916C9.61429 13.916 7.12304 17.7162 6.33395 16.7965C5.54487 15.8768 9.61429 13.916 9.61429 13.916Z" fill="#363C50"/>
<g id="Group_2">
<path id="Vector_15" d="M17.7344 6.78486H33.9996V0.210938H21.5738L17.7344 6.78486Z" fill="#282B2E"/>
<g id="Group_3">
<path id="Vector_16" d="M24.8947 5.08494H22.6226V4.52797L23.387 3.75505C23.6056 3.52665 23.7482 3.37058 23.8155 3.28685C23.8825 3.20365 23.9292 3.13157 23.9557 3.07169C23.9822 3.01154 23.9952 2.94874 23.9952 2.88303C23.9952 2.80168 23.9687 2.73729 23.9159 2.69013C23.8629 2.64296 23.7887 2.61938 23.6931 2.61938C23.5945 2.61938 23.4949 2.64747 23.3942 2.70391C23.2935 2.76035 23.1796 2.84355 23.0526 2.95325L22.5879 2.40926C22.7493 2.26512 22.8849 2.16178 22.9949 2.09977C23.1049 2.03777 23.2244 1.99035 23.3537 1.95749C23.483 1.92463 23.6282 1.9082 23.7895 1.9082C23.9925 1.9082 24.1732 1.94397 24.3325 2.01498C24.4917 2.08652 24.6152 2.18828 24.7029 2.32023C24.7906 2.45219 24.8346 2.60057 24.8346 2.76459C24.8346 2.88753 24.8192 3.00094 24.7885 3.10508C24.7577 3.20921 24.7103 3.31175 24.6462 3.41244C24.5818 3.51313 24.4967 3.61885 24.3902 3.7304C24.284 3.84169 24.0572 4.05315 23.7103 4.36422V4.38568H24.8947V5.08494Z" fill="white"/>
<path id="Vector_17" d="M27.5652 4.4783H27.2202V5.08429H26.3853V4.4783H25.1367V3.85721L26.4385 1.95312H27.2202V3.84634H27.5652V4.4783ZM26.3853 3.84634V3.48254C26.3853 3.41391 26.3876 3.3217 26.3927 3.20511C26.3977 3.08879 26.4014 3.02758 26.4043 3.02202H26.3808C26.332 3.13198 26.2772 3.23479 26.2159 3.33044L25.8688 3.84634H26.3853Z" fill="white"/>
<path id="Vector_18" d="M31.7925 5.08402H30.9425V3.80765H29.9594V5.08402H29.1094V1.95312H29.9594V3.11396H30.9425V1.95312H31.7925V5.08402Z" fill="white"/>
</g>
</g>
</g>
</svg>
