<svg xmlns="http://www.w3.org/2000/svg" width="233" height="67" viewBox="0 0 233 67" fill="none">
  <path d="M224.257 67H9.51357C4.79136 67 0.923828 63.2292 0.923828 58.625V8.375C0.923828 3.77085 4.79136 1.17882e-06 9.51357 1.17882e-06H224.257C228.979 1.17882e-06 232.847 3.77085 232.847 8.375V58.625C232.847 63.2292 228.979 67 224.257 67Z" fill="black"/>
  <path d="M224.257 1.34209C228.234 1.34209 231.47 4.49738 231.47 8.375V58.625C231.47 62.5026 228.234 65.6579 224.257 65.6579H9.51357C5.53652 65.6579 2.30033 62.5026 2.30033 58.625V8.375C2.30033 4.49738 5.53652 1.34209 9.51357 1.34209H224.257ZM224.257 1.17882e-06H9.51357C4.79136 1.17882e-06 0.923828 3.77085 0.923828 8.375V58.625C0.923828 63.2292 4.79136 67 9.51357 67H224.257C228.979 67 232.847 63.2292 232.847 58.625V8.375C232.847 3.77085 228.979 1.17882e-06 224.257 1.17882e-06Z" fill="#A6A6A6"/>
  <path d="M18.8494 12.6256C18.3448 13.1406 18.0527 13.9425 18.0527 14.981V52.0237C18.0527 53.0622 18.3448 53.8641 18.8494 54.3791L18.974 54.4922L40.2637 33.7431V33.2532L18.974 12.5041L18.8494 12.6256Z" fill="url(#paint0_linear_5605_47)"/>
  <path d="M47.3524 40.6641L40.2637 33.7442V33.2543L47.3609 26.3344L47.5199 26.4245L55.9249 31.0873C58.3236 32.4105 58.3236 34.588 55.9249 35.9196L47.5199 40.574L47.3524 40.6641V40.6641Z" fill="url(#paint1_linear_5605_47)"/>
  <path d="M47.52 40.5729L40.2638 33.4982L18.8496 54.3791C19.6463 55.1957 20.9455 55.2941 22.4229 54.4775L47.52 40.5729" fill="url(#paint2_linear_5605_47)"/>
  <path d="M47.52 26.4233L22.4229 12.5187C20.9455 11.7105 19.6463 11.8089 18.8496 12.6255L40.2638 33.498L47.52 26.4233Z" fill="url(#paint3_linear_5605_47)"/>
  <path d="M82.3862 17.1594C82.3862 18.558 81.9567 19.6782 81.1106 20.5136C80.1378 21.5039 78.8708 22.0022 77.3182 22.0022C75.8343 22.0022 74.5673 21.4956 73.528 20.4968C72.4865 19.4835 71.9668 18.2398 71.9668 16.7511C71.9668 15.2625 72.4865 14.0188 73.528 13.0138C74.5673 12.0067 75.8343 11.5 77.3182 11.5C78.0569 11.5 78.7613 11.6487 79.4334 11.925C80.1034 12.2035 80.6489 12.5804 81.044 13.0452L80.1464 13.9288C79.4571 13.1352 78.5186 12.7437 77.3182 12.7437C76.2359 12.7437 75.2975 13.1122 74.5008 13.8555C73.7127 14.6008 73.3175 15.5661 73.3175 16.7511C73.3175 17.9362 73.7127 18.9098 74.5008 19.6552C75.2975 20.3901 76.2359 20.7669 77.3182 20.7669C78.4671 20.7669 79.4334 20.3901 80.1958 19.6468C80.6983 19.1547 80.9839 18.4764 81.059 17.6096H77.3182V16.3994H82.3088C82.369 16.6611 82.3862 16.9144 82.3862 17.1594V17.1594Z" fill="white" stroke="white" stroke-width="0.206154" stroke-miterlimit="10"/>
  <path d="M90.3021 12.9617H85.6142V16.1442H89.8404V17.3544H85.6142V20.5369H90.3021V21.7701H84.2871V11.7285H90.3021V12.9617Z" fill="white" stroke="white" stroke-width="0.206154" stroke-miterlimit="10"/>
  <path d="M95.892 21.7701H94.5649V12.9617H91.6895V11.7285H98.7695V12.9617H95.892V21.7701V21.7701Z" fill="white" stroke="white" stroke-width="0.206154" stroke-miterlimit="10"/>
  <path d="M103.895 21.7701V11.7285H105.22V21.7701H103.895Z" fill="white" stroke="white" stroke-width="0.206154" stroke-miterlimit="10"/>
  <path d="M111.091 21.7701H109.775V12.9617H106.889V11.7285H113.977V12.9617H111.091V21.7701Z" fill="white" stroke="white" stroke-width="0.206154" stroke-miterlimit="10"/>
  <path d="M127.38 20.4801C126.364 21.4956 125.106 22.0022 123.605 22.0022C122.095 22.0022 120.837 21.4956 119.821 20.4801C118.807 19.4667 118.303 18.223 118.303 16.7511C118.303 15.2792 118.807 14.0355 119.821 13.0222C120.837 12.0067 122.095 11.5 123.605 11.5C125.097 11.5 126.356 12.0067 127.371 13.0305C128.394 14.0523 128.898 15.2876 128.898 16.7511C128.898 18.223 128.394 19.4667 127.38 20.4801ZM120.802 19.6384C121.567 20.3901 122.497 20.7669 123.605 20.7669C124.704 20.7669 125.643 20.3901 126.399 19.6384C127.161 18.8867 127.547 17.9215 127.547 16.7511C127.547 15.5807 127.161 14.6155 126.399 13.8638C125.643 13.1122 124.704 12.7353 123.605 12.7353C122.497 12.7353 121.567 13.1122 120.802 13.8638C120.04 14.6155 119.653 15.5807 119.653 16.7511C119.653 17.9215 120.04 18.8867 120.802 19.6384V19.6384Z" fill="white" stroke="white" stroke-width="0.206154" stroke-miterlimit="10"/>
  <path d="M130.76 21.7701V11.7285H132.37L137.378 19.5382H137.436L137.378 17.6078V11.7285H138.703V21.7701H137.32L132.076 13.5752H132.018L132.076 15.514V21.7701H130.76V21.7701Z" fill="white" stroke="white" stroke-width="0.206154" stroke-miterlimit="10"/>
  <path d="M117.977 36.4357C113.942 36.4357 110.646 39.4298 110.646 43.5607C110.646 47.6582 113.942 50.6837 117.977 50.6837C122.021 50.6837 125.317 47.6582 125.317 43.5607C125.317 39.4298 122.021 36.4357 117.977 36.4357ZM117.977 47.8781C115.763 47.8781 113.859 46.0963 113.859 43.5607C113.859 40.9917 115.763 39.2413 117.977 39.2413C120.191 39.2413 122.105 40.9917 122.105 43.5607C122.105 46.0963 120.191 47.8781 117.977 47.8781V47.8781ZM101.981 36.4357C97.9376 36.4357 94.6499 39.4298 94.6499 43.5607C94.6499 47.6582 97.9376 50.6837 101.981 50.6837C106.023 50.6837 109.313 47.6582 109.313 43.5607C109.313 39.4298 106.023 36.4357 101.981 36.4357ZM101.981 47.8781C99.7651 47.8781 97.8539 46.0963 97.8539 43.5607C97.8539 40.9917 99.7651 39.2413 101.981 39.2413C104.195 39.2413 106.1 40.9917 106.1 43.5607C106.1 46.0963 104.195 47.8781 101.981 47.8781ZM82.9464 38.6195V41.6471H90.3615C90.1446 43.3388 89.5648 44.5825 88.6757 45.4493C87.5934 46.4962 85.9077 47.6582 82.9464 47.6582C78.3831 47.6582 74.8097 44.0674 74.8097 39.6182C74.8097 35.169 78.3831 31.5782 82.9464 31.5782C85.4138 31.5782 87.209 32.5183 88.534 33.7369L90.7222 31.6033C88.869 29.8781 86.4038 28.5527 82.9464 28.5527C76.6888 28.5527 71.4297 33.517 71.4297 39.6182C71.4297 45.7194 76.6888 50.6837 82.9464 50.6837C86.3286 50.6837 88.869 49.6033 90.8661 47.5765C92.9126 45.5812 93.5504 42.7756 93.5504 40.5101C93.5504 39.8066 93.4903 39.1597 93.3829 38.6195H82.9464ZM160.782 40.9666C160.179 39.3732 158.317 36.4357 154.525 36.4357C150.767 36.4357 147.638 39.323 147.638 43.5607C147.638 47.5514 150.734 50.6837 154.885 50.6837C158.242 50.6837 160.179 48.6883 160.976 47.5263L158.485 45.9078C157.654 47.0929 156.522 47.8781 154.885 47.8781C153.26 47.8781 152.094 47.1515 151.346 45.7194L161.119 41.7769L160.782 40.9666V40.9666ZM150.818 43.3388C150.734 40.5918 153.006 39.1848 154.634 39.1848C155.91 39.1848 156.992 39.8066 157.353 40.6965L150.818 43.3388V43.3388ZM142.875 50.2503H146.087V29.3128H142.875V50.2503ZM137.614 38.0228H137.506C136.785 37.1895 135.408 36.4357 133.665 36.4357C130.005 36.4357 126.66 39.568 126.66 43.5838C126.66 47.5765 130.005 50.6837 133.665 50.6837C135.408 50.6837 136.785 49.9236 137.506 49.0652H137.614V50.087C137.614 52.8109 136.121 54.2745 133.714 54.2745C131.751 54.2745 130.534 52.8926 130.031 51.7305L127.237 52.8675C128.043 54.756 130.175 57.0801 133.714 57.0801C137.48 57.0801 140.659 54.9193 140.659 49.6619V36.8691H137.614V38.0228V38.0228ZM133.939 47.8781C131.725 47.8781 129.872 46.0711 129.872 43.5838C129.872 41.0734 131.725 39.2413 133.939 39.2413C136.121 39.2413 137.841 41.0734 137.841 43.5838C137.841 46.0711 136.121 47.8781 133.939 47.8781V47.8781ZM175.823 29.3128H168.139V50.2503H171.343V42.3171H175.823C179.381 42.3171 182.871 39.8066 182.871 35.8139C182.871 31.8232 179.373 29.3128 175.823 29.3128V29.3128ZM175.907 39.4046H171.343V32.2252H175.907C178.299 32.2252 179.665 34.1619 179.665 35.8139C179.665 37.4344 178.299 39.4046 175.907 39.4046ZM195.712 36.3959C193.398 36.3959 190.99 37.3926 190 39.6015L192.844 40.7635C193.456 39.6015 194.581 39.2246 195.77 39.2246C197.433 39.2246 199.118 40.1982 199.144 41.9171V42.137C198.564 41.8104 197.323 41.3267 195.796 41.3267C192.734 41.3267 189.614 42.9703 189.614 46.0376C189.614 48.8433 192.122 50.6502 194.942 50.6502C197.098 50.6502 198.287 49.7017 199.035 48.5983H199.144V50.2168H202.239V42.1851C202.239 38.4729 199.395 36.3959 195.712 36.3959ZM195.326 47.8697C194.278 47.8697 192.818 47.363 192.818 46.0963C192.818 44.4757 194.639 43.8539 196.215 43.8539C197.626 43.8539 198.287 44.1575 199.144 44.5574C198.893 46.4962 197.181 47.8697 195.326 47.8697V47.8697ZM213.513 36.8545L209.83 45.9309H209.72L205.913 36.8545H202.458L208.178 49.5384L204.914 56.5964H208.262L217.077 36.8545H213.513V36.8545ZM184.632 50.2503H187.844V29.3128H184.632V50.2503Z" fill="white"/>
  <defs>
    <linearGradient id="paint0_linear_5605_47" x1="38.3734" y1="52.4094" x2="10.2719" y2="23.5874" gradientUnits="userSpaceOnUse">
      <stop stop-color="#00A0FF"/>
      <stop offset="0.0066" stop-color="#00A1FF"/>
      <stop offset="0.2601" stop-color="#00BEFF"/>
      <stop offset="0.5122" stop-color="#00D2FF"/>
      <stop offset="0.7604" stop-color="#00DFFF"/>
      <stop offset="1" stop-color="#00E3FF"/>
    </linearGradient>
    <linearGradient id="paint1_linear_5605_47" x1="59.0484" y1="33.4969" x2="17.4794" y2="33.4969" gradientUnits="userSpaceOnUse">
      <stop stop-color="#FFE000"/>
      <stop offset="0.4087" stop-color="#FFBD00"/>
      <stop offset="0.7754" stop-color="#FFA500"/>
      <stop offset="1" stop-color="#FF9C00"/>
    </linearGradient>
    <linearGradient id="paint2_linear_5605_47" x1="43.5743" y1="29.6522" x2="5.46639" y2="-9.43287" gradientUnits="userSpaceOnUse">
      <stop stop-color="#FF3A44"/>
      <stop offset="1" stop-color="#C31162"/>
    </linearGradient>
    <linearGradient id="paint3_linear_5605_47" x1="13.4592" y1="66.7029" x2="30.4761" y2="49.2498" gradientUnits="userSpaceOnUse">
      <stop stop-color="#32A071"/>
      <stop offset="0.0685" stop-color="#2DA771"/>
      <stop offset="0.4762" stop-color="#15CF74"/>
      <stop offset="0.8009" stop-color="#06E775"/>
      <stop offset="1" stop-color="#00F076"/>
    </linearGradient>
  </defs>
</svg>