<svg width="31" height="28" viewBox="0 0 31 28" fill="none" xmlns="http://www.w3.org/2000/svg">
<g id="Group">
<g id="Group_2">
<path id="Vector" d="M23.9761 0.210938H0V15.8689H23.9761V0.210938Z" fill="#282B2E"/>
<path id="Vector_2" d="M22.7317 1.39258H1.16211V14.688H22.7317V1.39258Z" fill="#FF3333"/>
<path id="Vector_3" d="M17.9204 2.67773H10.5293V6.10306H17.9204V2.67773Z" fill="white"/>
<path id="Vector_4" d="M14.4971 15.8691H9.48047V21.6798H14.4971V15.8691Z" fill="#282B2E"/>
<path id="Vector_5" d="M15.5396 20.7676H8.4375V21.7061H15.5396V20.7676Z" fill="#282B2E"/>
<path id="Vector_6" d="M6.90537 18.9298H3.78906V14.7065C3.78906 13.9885 4.37133 13.4062 5.08932 13.4062H5.60511C6.32311 13.4062 6.90537 13.9885 6.90537 14.7065V18.9298Z" fill="#F2DBAF"/>
<path id="Vector_7" d="M9.03875 2.67773H2.61914V2.98016H9.03875V2.67773Z" fill="white"/>
<path id="Vector_8" d="M9.03875 3.58984H2.61914V3.89227H9.03875V3.58984Z" fill="white"/>
<path id="Vector_9" d="M9.03875 4.50195H2.61914V4.80438H9.03875V4.50195Z" fill="white"/>
<path id="Vector_10" d="M9.03875 5.41406H2.61914V5.71648H9.03875V5.41406Z" fill="white"/>
<path id="Vector_11" d="M9.03875 6.32617H2.61914V6.62859H9.03875V6.32617Z" fill="white"/>
<path id="Vector_12" d="M9.03875 7.23828H2.61914V7.5407H9.03875V7.23828Z" fill="white"/>
<path id="Vector_13" d="M9.03875 8.15039H2.61914V8.45281H9.03875V8.15039Z" fill="white"/>
<path id="Vector_14" d="M9.03875 9.0625H2.61914V9.36492H9.03875V9.0625Z" fill="white"/>
<path id="Vector_15" d="M9.03875 9.97461H2.61914V10.277H9.03875V9.97461Z" fill="white"/>
<path id="Vector_16" d="M9.03875 10.8867H2.61914V11.1891H9.03875V10.8867Z" fill="white"/>
<path id="Vector_17" d="M9.03875 11.7988H2.61914V12.1013H9.03875V11.7988Z" fill="white"/>
<path id="Vector_18" d="M9.03875 12.7109H2.61914V13.0134H9.03875V12.7109Z" fill="white"/>
</g>
<path id="Vector_19" d="M23.9771 5.03642V4.14844H19.6564V5.03642H15.3464C14.7279 5.03642 14.2266 5.53775 14.2266 6.15629V15.8191H23.9929V5.03642H23.9771Z" fill="#FFB0B0"/>
<g id="Group_3">
<path id="Vector_20" d="M30.2601 27.9176H15.6248C15.2161 27.9176 14.8848 27.5862 14.8848 27.1775V6.34163C14.8848 5.93291 15.2161 5.60156 15.6248 5.60156H30.2601C30.6688 5.60156 31.0001 5.93291 31.0001 6.34163V27.1778C31.0001 27.5862 30.6688 27.9176 30.2601 27.9176Z" fill="#FF8A8A"/>
<path id="Vector_21" d="M29.9857 6.51367H15.9492V26.6818H29.9857V6.51367Z" fill="white"/>
<path id="Vector_22" d="M26.8957 4.61328H20.0293V7.45102H26.8957V4.61328Z" fill="#282B2E"/>
<path id="Vector_23" d="M24.3116 3.89062H22.9688V4.61268H24.3116V3.89062Z" fill="#363C50"/>
<path id="Vector_24" d="M20.3959 8.60352H17.3555V11.644H20.3959V8.60352Z" fill="#FF3333"/>
<path id="Vector_25" d="M28.3016 13.6582H20.3965V13.9622H28.3016V13.6582Z" fill="#363C50"/>
<path id="Vector_26" d="M28.3016 15.2793H20.3965V15.5832H28.3016V15.2793Z" fill="#363C50"/>
<path id="Vector_27" d="M28.3016 16.9004H20.3965V17.2043H28.3016V16.9004Z" fill="#363C50"/>
<path id="Vector_28" d="M28.3016 18.5234H20.3965V18.8274H28.3016V18.5234Z" fill="#363C50"/>
<path id="Vector_29" d="M28.3016 20.1445H20.3965V20.4485H28.3016V20.1445Z" fill="#363C50"/>
<path id="Vector_30" d="M28.3016 21.7656H20.3965V22.0696H28.3016V21.7656Z" fill="#363C50"/>
<path id="Vector_31" d="M28.3016 23.3867H20.3965V23.6907H28.3016V23.3867Z" fill="#363C50"/>
<path id="Vector_32" d="M17.3555 13.5448L17.8685 14.533L19.6546 12.7656L18.0014 13.8109L17.3555 13.5448Z" fill="#FF3333"/>
<path id="Vector_33" d="M17.3555 15.4784L17.8685 16.4666L19.6546 14.6992L18.0014 15.7445L17.3555 15.4784Z" fill="#FF3333"/>
<path id="Vector_34" d="M17.3555 17.4137L17.8685 18.4019L19.6546 16.6348L18.0014 17.6798L17.3555 17.4137Z" fill="#FF3333"/>
<path id="Vector_35" d="M17.3555 19.3495L17.8685 20.3374L19.6546 18.5703L18.0014 19.6153L17.3555 19.3495Z" fill="#FF3333"/>
<path id="Vector_36" d="M17.3555 21.285L17.8685 22.2732L19.6546 20.5059L18.0014 21.5509L17.3555 21.285Z" fill="#FF3333"/>
<path id="Vector_37" d="M17.3555 23.2186L17.8685 24.2068L19.6546 22.4395L18.0014 23.4847L17.3555 23.2186Z" fill="#FF3333"/>
</g>
<path id="Vector_38" d="M3.78832 17.373H0.189453V25.7089H3.78832V17.373Z" fill="#FF0000"/>
<path id="Vector_39" d="M9.60408 25.7089H3.78906V17.373H9.60408C10.4033 17.373 11.0512 18.021 11.0512 18.8202V24.2618C11.0512 25.0609 10.4033 25.7089 9.60408 25.7089Z" fill="#F2DBAF"/>
</g>
</svg>
