<svg width="230" height="205" viewBox="0 0 230 205" fill="none" xmlns="http://www.w3.org/2000/svg">
<g id="Frame 69">
<rect x="0.324219" y="0.367188" width="229.35" height="203.867" rx="8.6875" fill="white"/>
<g id="Group">
<path id="Vector" opacity="0.3" d="M204.775 169.018C195.827 162.681 40.5932 162.583 25.8125 169.018C38.4212 175.054 193.964 175.355 204.775 169.018Z" fill="#431F00"/>
<g id="Group_2">
<path id="Vector_2" d="M181.242 168.644L187.01 41.8979L176.597 31.0625L49.168 50.2196L57.1725 168.644H181.242Z" fill="#DB712A"/>
<path id="Vector_3" opacity="0.3" d="M168.535 168.644H181.25L187.017 41.8975L176.605 31.0703L175.466 31.2411C174.417 50.6992 170.008 132.867 168.535 168.644Z" fill="#673B00"/>
<path id="Vector_4" opacity="0.7" d="M53.0352 53.0662L62.8293 164.275L164.887 164.918L171.224 35.1699L53.0352 53.0662Z" fill="#673B00"/>
<path id="Vector_5" d="M58.1523 140.53L169.801 131.736V133.843L58.5347 142.515L58.1523 140.53Z" fill="#DB712A"/>
<path id="Vector_6" d="M54.8945 76.1683L171.83 66.0488V68.473L55.3013 78.4542L54.8945 76.1683Z" fill="#DB712A"/>
<path id="Vector_7" d="M56.1406 110.897L168.814 101.029V103.291L56.523 113.028L56.1406 110.897Z" fill="#DB712A"/>
<path id="Vector_8" d="M60.3867 83.5395L64.8608 110.181L86.621 108.554L85.4008 84.7597L79.5032 81.5059L60.3867 83.5395Z" fill="url(#paint0_linear_1380_8173)"/>
<g id="Group_3">
<path id="Vector_9" d="M79.5032 81.5059L60.3867 83.5395L67.9113 109.977L82.8302 108.83L79.6577 81.5872L79.5032 81.5059Z" fill="#F2E3A5"/>
</g>
<path id="Vector_10" d="M83.5703 96.4166L85.2623 108.684L99.4329 107.13L99.7013 95.3347L95.9106 93.8379L83.5703 96.4166Z" fill="#564332"/>
<path id="Vector_11" d="M151.293 82.7018L152.407 90.7388L161.689 89.7138L161.868 81.9941L159.379 81.0098L151.293 82.7018Z" fill="#282B2E"/>
<path id="Vector_12" d="M65.2315 140.076L62.2461 125.563L77.1569 123.123L81.7693 126.784L81.2242 138.579L65.2315 140.076Z" fill="url(#paint1_linear_1380_8173)"/>
<g id="Group_4">
<path id="Vector_13" d="M77.1585 123.123L65.3633 125.027L66.2825 139.97L77.5897 138.921L77.6629 123.522L77.1585 123.123Z" fill="#F2E3A5"/>
</g>
<g id="Group_5">
<path id="Vector_14" d="M85.8047 95.9441L87.5292 108.349L95.1758 107.593L95.5907 93.9023L85.8047 95.9441Z" fill="#F2E3A5"/>
</g>
<path id="Vector_15" d="M80.582 131.128L80.8505 138.717L89.7986 138.449L90.6121 131.396L86.5448 130.176L80.582 131.128Z" fill="#6F7173"/>
<path id="Vector_16" d="M128.301 164.332L129.822 151.959L142.154 152.097L143.594 155.213L142.276 164.747L128.301 164.332Z" fill="#FF3333"/>
<path id="Vector_17" d="M67.2967 164.073L66.2148 148.21L78.2785 146.307L83.4278 148.479L84.3795 164.479L67.2967 164.073Z" fill="#FF0000"/>
<path id="Vector_18" d="M88.0428 164.34L86.9609 149.43L101.058 147.803L104.581 151.732L103.905 164.886L88.0428 164.34Z" fill="url(#paint2_linear_1380_8173)"/>
<path id="Vector_19" d="M145.938 164.34L144.848 149.43L158.953 147.803L162.475 151.732L161.8 164.886L145.938 164.34Z" fill="url(#paint3_linear_1380_8173)"/>
<g id="Group_6">
<path id="Vector_20" opacity="0.3" d="M95.913 151.871L95.1728 148.479L90.2513 149.048L90.2188 153.221L95.913 151.871Z" fill="#431F00"/>
</g>
<path id="Vector_21" d="M87.6383 138.042L87.5 152.278L93.1943 150.919L90.3471 137.766L87.6383 138.042Z" fill="#EA5D49"/>
<g id="Group_7">
<path id="Vector_22" d="M88.9708 137.902L87.6367 138.041L87.9052 150.78L90.6221 149.022L88.9708 137.902Z" fill="#F2E3A5"/>
</g>
<g id="Group_8">
<path id="Vector_23" d="M82.1438 131.598L81.8672 138.512L85.8044 138.171L85.3976 130.41L82.1438 131.598Z" fill="#F2E3A5"/>
</g>
<g id="Group_9">
<path id="Vector_24" d="M78.2785 146.307L66.2148 148.21L69.062 150.651L78.6853 151.732L78.4412 146.38L78.2785 146.307Z" fill="#F2E3A5"/>
</g>
<path id="Vector_25" d="M90.2148 162.168L94.1439 154.034L97.6662 152.545L96.991 162.982L90.2148 162.168Z" fill="#F2E3A5"/>
<path id="Vector_26" d="M59.4336 58.0447L61.4673 75.6725L78.4199 74.0456L77.4681 57.3695L71.3672 55.8809L59.4336 58.0447Z" fill="url(#paint4_linear_1380_8173)"/>
<path id="Vector_27" d="M132.516 86.2481L134.549 103.876L151.29 102.347L150.542 85.5729L144.441 84.0762L132.516 86.2481Z" fill="url(#paint5_linear_1380_8173)"/>
<path id="Vector_28" d="M149.727 102.501L149.922 90.2664L161.961 89.1113L163.694 91.9991L163.401 101.443L149.727 102.501Z" fill="#FF3333"/>
<path id="Vector_29" d="M159.021 81.0996L158.956 88.7543H153.798L151.391 82.7265L159.021 81.0996Z" fill="#F2E3A5"/>
<path id="Vector_30" d="M145.531 84.4824L145.661 102.249L135.77 102.517L139.837 85.2959L145.531 84.4824Z" fill="#F2E3A5"/>
<path id="Vector_31" d="M154.643 90.958L153.016 100.923L159.491 100.622L160.646 90.1445L154.643 90.958Z" fill="#F2E3A5"/>
<path id="Vector_32" d="M132.243 152.545L129.266 163.388L139.157 163.665L141.468 152.813L132.243 152.545Z" fill="#F2E3A5"/>
<path id="Vector_33" d="M146.07 150.105L147.022 163.259L155.97 163.666L158.142 148.479L146.07 150.105Z" fill="#F2E3A5"/>
</g>
<path id="Vector_34" d="M44.457 148.51L58.9937 143.914L72.1637 145.899L70.675 170.506L47.0601 170.132L44.457 148.51Z" fill="url(#paint6_linear_1380_8173)"/>
<path id="Vector_35" opacity="0.2" d="M63.4367 144.646C63.4367 144.646 61.9237 154.864 65.0799 156.539C68.2362 158.215 68.9683 155.677 68.9683 155.677C68.9683 155.677 65.0637 151.561 66.7475 144.947L63.4367 144.646Z" fill="#431F00"/>
<g id="Group_10">
<path id="Vector_36" d="M98.1445 170.443L101.602 91.5039L103.562 91.6015L100.585 170.443H98.1445Z" fill="#A89851"/>
<path id="Vector_37" d="M113.023 87.7207C111.843 87.7207 110.875 89.2582 110.721 91.243C110.696 91.5115 110.558 93.2197 110.339 95.9448L101.431 96.2702C102.586 95.8716 103.375 93.8136 103.497 91.9019C103.644 89.7056 102.684 88.4284 101.293 88.4284C100.024 88.4284 98.8849 89.9333 98.584 91.8694C98.2911 93.8136 86.1542 170.418 86.5772 171.06C87.0002 171.695 87.8543 172.004 88.5376 171.548C88.6841 171.451 89.2779 167.994 90.1321 162.625L105.059 162.446C104.636 168.327 104.4 172.126 104.498 172.272C104.929 172.923 105.742 173.232 106.353 172.769C106.955 172.305 112.112 97.5718 112.226 95.8066C112.348 94.0413 112.519 92.0483 112.616 91.3325C112.738 90.397 112.901 89.8764 113.275 89.673C113.438 89.7625 113.413 89.9821 113.511 91.2511C113.568 91.967 113.617 95.3347 113.56 95.7903C114.658 95.4649 115.358 93.7973 115.358 91.788C115.358 89.5429 114.316 87.7207 113.023 87.7207ZM100.618 91.9589C100.813 91.0478 101.016 90.5353 101.439 90.3319C101.61 90.4214 101.569 90.6329 101.586 91.8694C101.602 92.5527 101.439 95.7252 101.342 96.2702L99.9018 96.319C100.146 94.6108 100.463 92.6584 100.618 91.9589ZM99.552 98.7838L110.119 98.5967C109.932 100.858 109.712 103.551 109.468 106.552L98.3887 106.878C98.8849 103.429 99.2917 100.63 99.552 98.7838ZM94.0204 137.822L93.8171 138.278C94.2075 135.626 94.598 132.949 94.9884 130.298L107.565 130.119C107.369 132.567 107.174 135.016 106.979 137.448L94.0204 137.822ZM106.767 140.075C106.475 143.744 106.198 147.315 105.938 150.667L91.9054 151.041C92.4179 147.641 92.9629 143.996 93.5161 140.271L106.767 140.075ZM95.3464 127.841C95.7938 124.774 96.233 121.772 96.6479 118.901L108.476 118.73C108.248 121.569 108.012 124.506 107.768 127.475L95.3464 127.841ZM97.0058 116.444C97.3719 113.914 97.7217 111.531 98.0308 109.334L109.249 109.172C109.07 111.368 108.882 113.687 108.687 116.094L97.0058 116.444ZM90.5144 160.184C90.8316 158.134 91.1814 155.889 91.5393 153.489L105.734 153.31C105.555 155.629 105.393 157.817 105.246 159.818L90.5144 160.184Z" fill="#A89851"/>
<g id="Group_11" opacity="0.8">
<path id="Vector_38" d="M98.4619 101.973L96.6479 104.218C93.1663 126.377 86.2599 170.58 86.5853 171.06C86.8944 171.516 87.4151 171.801 87.9438 171.752L98.4619 101.973Z" fill="#F2E3A5"/>
<path id="Vector_39" d="M110.721 91.2425C110.697 91.5109 110.559 93.2192 110.339 95.9443L103.172 96.2046L102.839 98.7101L110.119 98.5799C109.932 100.841 109.713 103.534 109.469 106.536L101.781 106.763L101.448 109.277L109.257 109.163C109.078 111.359 108.891 113.678 108.696 116.086L100.521 116.322L100.187 118.827L108.476 118.705C108.248 121.544 108.013 124.481 107.769 127.45L99.0075 127.71L98.674 130.216L107.549 130.085C107.354 132.534 107.158 134.983 106.963 137.415L97.6816 137.683L97.3481 140.181L106.744 140.042C106.451 143.711 106.174 147.282 105.914 150.634L95.9245 150.894L95.591 153.391L105.702 153.261C105.523 155.579 105.361 157.768 105.214 159.769L94.7124 160.029L94.3789 162.535L105.019 162.404C104.596 168.286 104.36 172.085 104.458 172.231C104.742 172.654 105.182 172.931 105.621 172.947L111.437 88.7207C111.079 89.3877 110.803 90.2663 110.721 91.2425Z" fill="#F2E3A5"/>
</g>
<path id="Vector_40" d="M115.389 91.9748C115.389 91.747 115.373 91.5274 115.357 91.3078V91.2671C115.162 89.3229 114.177 87.7285 113.03 87.7285C111.851 87.7285 110.883 89.266 110.728 91.2508C110.72 91.4054 110.663 92.0073 110.59 92.9672L112.266 95.3019C112.379 93.675 112.534 91.9748 112.624 91.3322C112.746 90.3967 112.908 89.8761 113.282 89.6727C113.445 89.7622 113.421 89.9818 113.518 91.2508V91.2671H113.51L112.379 170.848L114.551 170.987L115.349 92.8371C115.373 92.4954 115.389 92.2026 115.389 91.9748Z" fill="#A89851"/>
</g>
<g id="Group_12">
<path id="Vector_41" d="M101.578 85.2964C101.578 85.2964 97.5273 95.4729 105.117 92.0157C108.9 89.9251 109.746 88.7862 109.746 88.7862L111.454 90.8443C111.454 90.8443 103.165 99.8168 98.9184 94.8221C95.0951 89.8356 97.7063 85.0117 97.7063 85.0117L101.578 85.2964Z" fill="#FF0303"/>
<path id="Vector_42" opacity="0.3" d="M101.578 85.2964C101.578 85.2964 97.5273 95.4729 105.117 92.0157C108.9 89.9251 108.989 91.0639 108.989 91.0639L111.454 90.8443C111.454 90.8443 103.165 99.8168 98.9184 94.8221C95.0951 89.8356 97.7063 85.0117 97.7063 85.0117L101.578 85.2964Z" fill="#673B00"/>
</g>
<path id="Vector_43" d="M95.1588 142.987L95.0938 145.565L95.834 145.492L96.1106 142.58L95.1588 142.987Z" fill="#A38571"/>
<path id="Vector_44" d="M101.433 103.647C98.2197 94.2357 102.58 89.0783 101.734 85.8407C100.937 82.7658 90.6138 83.262 89.3936 88.9563C86.6522 95.2362 90.4511 109.887 91.7201 114.353C92.5498 122.666 94.8194 143.19 94.8194 143.19L96.4463 143.328L97.9594 112.108C100.611 109.789 113.667 99.328 106.094 124.619L107.77 124.822C107.9 124.415 119.451 98.97 101.433 103.647Z" fill="url(#paint7_linear_1380_8173)"/>
<g id="Group_13">
<path id="Vector_45" d="M90.8414 86.3789C90.1337 87.0785 89.6131 87.9326 89.3935 88.9657C88.4254 91.1865 88.2709 94.4485 88.5393 97.9383C88.58 97.9057 88.6125 97.8813 88.6451 97.8488C95.9093 90.9262 93.111 87.1436 90.8414 86.3789Z" fill="#7EB7C4"/>
</g>
<g id="Group_14">
<path id="Vector_46" d="M95.5678 90.8606C98.3173 89.5428 99.4317 89.0303 99.4317 89.0303C99.4317 89.0303 100.652 86.533 100.05 84.361C97.9106 83.6045 94.2418 83.938 91.7852 85.5975C91.7933 85.6219 91.7933 85.6463 91.8014 85.6707C91.8014 85.6707 95.462 88.5178 95.5678 90.8606Z" fill="#7EB7C4"/>
</g>
<g id="Group_15">
<path id="Vector_47" opacity="0.3" d="M106.097 124.619L107.773 124.822C107.911 124.416 119.454 98.9705 101.436 103.648C98.2229 94.2361 102.583 89.0787 101.737 85.8411C101.233 83.8888 96.8889 83.3845 93.4642 84.7267V84.7592C93.4642 84.7592 93.8709 91.9421 88.6484 95.1309C89.771 95.9444 91.9023 99.605 93.0249 104.486C93.3096 106.039 93.5943 108.521 93.8628 111.498C93.9116 111.994 92.6751 115.045 92.7239 115.565C92.7809 116.224 94.0905 113.247 94.1475 113.938C95.0667 125.733 95.7744 142.849 95.7744 142.849L96.4496 143.321L97.9626 112.1C100.615 109.79 113.671 99.3284 106.097 124.619Z" fill="#673B00"/>
</g>
<g id="Group_16">
<path id="Vector_48" d="M58.9925 143.914L45.4727 149.153L47.0589 170.132L58.8054 170.319L58.9925 143.914Z" fill="#F2E3A5"/>
</g>
<path id="Vector_49" opacity="0.4" d="M46.5586 150.105L51.4394 158.101L47.9171 168.815L52.3912 159.191L57.1743 168.644L53.3348 157.695L57.1337 146.713L52.2529 156.344L46.5586 150.105Z" fill="#12263F"/>
<path id="Vector_50" d="M95.9764 149.43C96.5214 144.484 95.1629 144.891 94.6179 144.891C94.0728 144.891 95.228 146.925 94.8212 149.365C94.8212 151.61 97.2616 150.854 97.8067 150.854C98.3517 150.854 97.2616 150.715 95.9764 149.43Z" fill="#431F00"/>
<path id="Vector_51" d="M94.8103 144.875C94.8103 144.875 92.9881 144.834 94.2978 146.73L95.0869 146.77L94.8103 144.875Z" fill="#431F00"/>
<path id="Vector_52" d="M105.256 126.855C105.256 126.855 104.817 128.621 106.956 127.758L107.168 126.994L105.256 126.855Z" fill="#431F00"/>
<path id="Vector_53" d="M106.397 124.717L106.039 126.092L106.706 126.547L107.365 124.619L106.397 124.717Z" fill="#A38571"/>
<path id="Vector_54" d="M111.632 128.175C111.665 127.906 110.306 127.402 108.476 126.906C106.597 126.401 105.922 125.677 105.881 125.938C105.848 126.206 104.254 127.207 106.133 127.467C108.02 127.719 111.591 128.443 111.632 128.175Z" fill="#431F00"/>
<path id="Vector_55" d="M94.3411 84.9225L94.2109 77.7559L97.6682 80.8308C97.6682 80.8308 98.3108 82.2381 98.8233 84.5402C97.6682 87.8672 94.3411 84.9225 94.3411 84.9225Z" fill="#FFB38A"/>
<g id="Group_17">
<path id="Vector_56" opacity="0.3" d="M98.822 84.5389C98.3095 82.2368 97.6669 80.8295 97.6669 80.8295L96.0725 79.4141L94.2747 79.5442L94.2422 79.6012L94.291 82.4483L97.008 86.1252C97.7238 86.1008 98.4071 85.7184 98.822 84.5389Z" fill="#673B00"/>
</g>
<path id="Vector_57" d="M94.239 76.471C93.8242 75.3891 92.8317 74.7627 92.0345 75.0637C91.2292 75.3728 90.912 76.5035 91.3268 77.5854C91.7417 78.6674 92.7341 79.2937 93.5313 78.9927C94.3448 78.6836 94.6539 77.5529 94.239 76.471Z" fill="#E59673"/>
<path id="Vector_58" opacity="0.3" d="M94.4764 76.5115C94.1348 75.6167 93.24 75.1367 92.4753 75.4296C91.7106 75.7224 91.369 76.6823 91.7106 77.569C92.0523 78.4557 92.9471 78.9438 93.7118 78.6509C94.4764 78.3662 94.8181 77.4063 94.4764 76.5115Z" fill="#673B00"/>
<path id="Vector_59" d="M103.751 76.6416C103.726 76.422 103.685 76.2023 103.62 75.9827C102.677 72.8264 102.278 68.6208 99.5205 68.7266C91.7682 66.9288 92.964 73.282 93.086 76.5684C93.1267 77.813 93.4927 78.9518 94.0703 79.8873C94.7536 81.7583 96.9744 83.0842 99.5612 82.9866C102.628 82.8727 105.036 80.8228 104.954 78.4068C104.914 77.4307 104.458 76.9588 103.751 76.6416Z" fill="#E59673"/>
<path id="Vector_60" d="M103.599 75.9825C102.924 73.4444 102.541 69.2388 99.9953 69.2063C92.6823 67.2295 93.5446 73.0377 93.5202 76.0231C93.512 77.1538 93.8049 78.2032 94.3173 79.0736C94.8868 80.7982 96.9449 82.0997 99.4178 82.1323C102.346 82.1729 104.738 80.424 104.754 78.2276C104.762 77.3409 104.347 76.6902 103.599 75.9825Z" fill="#FFB38A"/>
<path id="Vector_61" d="M94.2416 74.0787C94.2416 74.0787 94.3392 77.0804 94.4449 77.5359C94.5426 77.9914 93.8348 78.6585 93.8348 78.6585C93.8348 78.6585 92.8668 74.9491 92.6635 73.8753C92.4682 72.8097 94.2416 74.0787 94.2416 74.0787Z" fill="#4C3F32"/>
<path id="Vector_62" d="M92.9868 75.0619L97.3307 70.4495L102.342 70.3193L100.65 65.6094L94.1745 66.3171L90.9531 70.7912L92.9868 75.0619Z" fill="#7EB7C4"/>
<path id="Vector_63" d="M94.1797 66.3171L95.8066 69.9777L102.217 69.8801L100.655 65.6094L94.1797 66.3171Z" fill="#4A7C84"/>
<path id="Vector_64" d="M99.9039 67.7743C99.9039 67.2456 99.1473 66.8145 98.2037 66.8145C97.2682 66.8145 96.5117 67.2456 96.5117 67.7825C96.5117 68.3112 97.2682 68.7424 98.2037 68.7424C99.1473 68.7424 99.9039 68.3031 99.9039 67.7743Z" fill="#7EB7C4"/>
<path id="Vector_65" d="M102.345 71.1659L103.833 69.9457C103.793 68.7336 102.882 67.7249 101.686 67.5622L100.856 67.4483C99.8392 67.3101 98.798 67.4727 97.8625 67.912L97.6998 67.9852C96.8782 68.3757 96.1949 69.0102 95.7475 69.7911L92.8516 74.8183L93.0875 75.0217L97.7324 70.8893L102.345 71.1659Z" fill="#7EB7C4"/>
<path id="Vector_66" d="M102.62 71.4022L104.109 70.182C104.068 68.9699 103.157 67.9613 101.961 67.7986L101.131 67.6847C100.115 67.5464 99.0733 67.7091 98.1378 68.1483L97.8775 68.2704C97.1128 68.6364 96.4702 69.2059 96.0228 69.9136L92.8828 74.8594L93.0211 75.0953C93.0211 75.0953 97.9995 71.1256 97.9995 71.1338L102.62 71.4022Z" fill="#4A7C84"/>
<path id="Vector_67" d="M99.0655 74.0625C98.6588 74.2903 98.854 75.5349 99.4641 76.7551C100.204 78.0566 101.457 77.837 101.864 77.6092C103.003 75.3885 100.831 76.9259 99.0655 74.0625Z" fill="#EA5D49"/>
<path id="Vector_68" d="M97.5007 75.4868C97.3868 75.0638 97.1346 74.771 96.9394 74.8198C96.736 74.8767 96.6709 75.259 96.7767 75.682C96.8906 76.105 97.1427 76.3979 97.338 76.3491C97.5413 76.2921 97.6146 75.9098 97.5007 75.4868Z" fill="#4C3F32"/>
<path id="Vector_69" d="M101.692 74.5591C101.578 74.1361 101.326 73.8432 101.131 73.892C100.927 73.949 100.862 74.3313 100.968 74.7543C101.082 75.1773 101.334 75.4702 101.529 75.4213C101.733 75.3644 101.798 74.9821 101.692 74.5591Z" fill="#4C3F32"/>
<path id="Vector_70" d="M102.316 78.4303C102.023 79.0974 101.34 79.6098 100.559 79.683C100.006 79.7319 99.518 79.5448 99.1926 79.2031L98.8672 79.2845C99.2007 79.7563 99.8271 80.041 100.559 79.9759C101.552 79.8864 102.398 79.195 102.593 78.3652L102.316 78.4303Z" fill="#4C3F32"/>
<path id="Vector_71" d="M95.5004 74.9239C95.5004 74.9239 97.1273 73.5329 97.3632 73.5329C97.5991 73.5329 97.2656 72.752 97.2656 72.752C97.2656 72.752 95.1994 74.0047 95.1994 74.143C95.1912 74.2813 95.5004 74.9239 95.5004 74.9239Z" fill="#4C3F32"/>
<path id="Vector_72" d="M100.342 72.9975C100.342 72.9975 101.562 72.7615 102.034 73.2659C102.506 73.7702 102.002 72.2816 102.002 72.2816C102.002 72.2816 100.375 71.9399 100.204 72.0457C100.033 72.1515 100.342 72.9975 100.342 72.9975Z" fill="#4C3F32"/>
<path id="Vector_73" d="M101.318 77.0884C101.448 76.9095 101.359 76.6085 101.106 76.4214C100.862 76.2343 100.553 76.218 100.415 76.397C100.285 76.5759 100.374 76.8769 100.626 77.064C100.87 77.2592 101.18 77.2674 101.318 77.0884Z" fill="#FFB38A"/>
<path id="Vector_74" d="M89.6719 108.757L99.9704 100.346L101.191 101.704L90.7538 111.197L89.6719 108.757Z" fill="#673B00"/>
<path id="Vector_75" opacity="0.3" d="M90.207 110.514L98.48 102.656L99.9686 104.69L91.4272 112.418L90.207 110.514Z" fill="#431F00"/>
<g id="Group_18">
<path id="Vector_76" d="M92.1211 91.8604L98.9542 87.2969L106.625 89.7129L105.828 102.248L99.8327 107.991L94.228 104.982L92.1211 91.8604Z" fill="url(#paint8_linear_1380_8173)"/>
<g id="Group_19">
<path id="Vector_77" d="M92.1914 92.332L94.2251 104.981L99.8298 107.991L100.106 94.7887L92.1914 92.332Z" fill="url(#paint9_linear_1380_8173)"/>
</g>
<path id="Vector_78" opacity="0.3" d="M92.4531 92.6172L95.5687 98.7914L94.5519 104.892L96.3171 99.5316L99.4327 107.129L96.7889 98.9215L98.9609 95.1308L96.1137 98.3847L92.4531 92.6172Z" fill="#673B00"/>
</g>
<path id="Vector_79" d="M89.8954 87.5506C89.8954 87.5506 81.9234 104.218 92.3114 104.072C94.5322 104.015 97.8592 102.437 97.8592 102.437L97.2003 99.5167C97.2003 99.5167 89.4643 102.949 90.0744 98.2721C91.2946 92.3907 92.3765 90.715 92.3765 90.715C92.3765 90.715 92.832 85.5495 89.8954 87.5506Z" fill="#7EB7C4"/>
<path id="Vector_80" d="M99.832 107.991L105.404 102.142L105.966 98.3027L105.917 102.191L99.832 107.991Z" fill="url(#paint10_linear_1380_8173)"/>
<path id="Vector_81" opacity="0.8" d="M93.1942 106.039L93.4626 108.756L90.7538 111.196L89.6719 108.756L93.1942 106.039Z" fill="#F2E3A5"/>
<path id="Vector_82" d="M92.7188 115.565L94.9558 111.807L94.0366 110.074L92.7188 115.565Z" fill="#77A3BC"/>
<path id="Vector_83" opacity="0.7" d="M63.4342 144.646C63.4342 144.646 61.9049 156.238 68.5183 155.937C68.5183 155.937 69.3318 154.001 70.7554 154.001C70.7554 154.001 65.1587 154.611 66.5904 145.151L63.4342 144.646Z" fill="#F2E3A5"/>
<path id="Vector_84" opacity="0.4" d="M62.0117 84.9631L71.0981 96.6852L67.0959 108.147L72.18 97.5718L80.7214 107.13L73.807 95.7415L78.4844 83.1328L71.7733 95.3348L62.0117 84.9631Z" fill="#12263F"/>
<path id="Vector_85" opacity="0.2" d="M64.0469 127.263L69.3344 132.55L66.2839 139.058L70.758 133.77L75.8421 137.634L71.3681 131.737L76.0455 124.822L70.3512 130.72L64.0469 127.263Z" fill="#431F00"/>
<path id="Vector_86" d="M71.9101 56.6953L73.5371 73.9083L62.0102 74.86L59.9766 58.8591L71.9101 56.6953Z" fill="#F2E3A5"/>
<path id="Vector_87" d="M61.1992 59.4032L65.4048 66.1794L62.6879 73.3704L66.4867 67.2694L72.4494 72.8254L67.7069 66.0492L71.3675 57.5078L66.7552 64.4223L61.1992 59.4032Z" fill="url(#paint11_linear_1380_8173)"/>
<path id="Vector_88" opacity="0.2" d="M133.391 86.7928L138.776 94.8217L135.424 102.859L139.793 95.8385L145.283 102.045L140.606 94.724L145.283 85.4668L139.386 93.3005L133.391 86.7928Z" fill="#431F00"/>
<path id="Vector_89" opacity="0.2" d="M146.613 150.65L150.274 156.751L147.427 162.446L151.494 157.695L156.92 162.852L152.446 156.206L158.14 148.479L151.494 154.848L146.613 150.65Z" fill="#431F00"/>
<path id="Vector_90" d="M150.27 91.2666L153.824 95.1306L150.676 100.516L154.744 96.1474L159.079 100.621L155.858 95.334L159.828 90.5508L154.841 94.5205L150.27 91.2666Z" fill="#282B2E"/>
<path id="Vector_91" d="M76.7181 74.2495L76.043 67.1968L83.2259 65.9766L86.618 67.7418V73.5011L76.7181 74.2495Z" fill="#282B2E"/>
<g id="Group_20" opacity="0.7">
<path id="Vector_92" d="M82.7459 72.2088L82.9004 72.1844L82.5995 67.1328L81.4688 69.8417L82.7459 72.2088Z" fill="#F2E3A5"/>
<path id="Vector_93" d="M79.768 68.6936L82.5907 67.0016L82.5826 66.8633L78.3281 67.5873L79.768 68.6936Z" fill="#F2E3A5"/>
<path id="Vector_94" d="M78.9556 69.9794L78.1828 69.0195L77.8086 72.8266L78.9556 69.9794Z" fill="#F2E3A5"/>
<path id="Vector_95" d="M80.1764 70.9297L77.8011 72.9471L77.793 73.0284L82.4541 72.2556L80.1764 70.9297Z" fill="#F2E3A5"/>
</g>
<path id="Vector_96" d="M138.885 133.77L137.461 116.077L153.324 113.84L160.238 117.907L160.035 132.55L138.885 133.77Z" fill="#FF0000"/>
<path id="Vector_97" d="M152.548 114.857L153.281 132.201L139.59 132.754L138.305 116.867L152.548 114.857Z" fill="#F2E3A5"/>
<path id="Vector_98" d="M138.68 117.299L143.357 123.668L139.591 132.755L144.577 125.027L153.281 132.202L145.936 123.807L152.305 115.672L144.374 122.586L138.68 117.299Z" fill="#6F7173"/>
<g id="Group_21">
<path id="Vector_99" opacity="0.3" d="M93.0195 75.0944L99.7794 76.6237C99.7794 76.6237 103.896 76.4692 103.619 75.9811C103.172 74.4762 102.984 72.7272 102.326 71.3362C100.373 71.2386 98.0061 71.1328 98.0061 71.1328L93.0195 75.0944Z" fill="#673B00"/>
</g>
<g id="Group_22">
<path id="Vector_100" d="M106.625 89.7129L98.9542 87.2969L92.1211 91.8604L100.109 94.7889L106.625 89.7129Z" fill="#F2E3A5"/>
</g>
<path id="Vector_101" opacity="0.3" d="M100.109 94.79L99.832 107.993L105.827 102.249L106.21 90.7227L100.109 94.79Z" fill="#431F00"/>
<path id="Vector_102" d="M104.938 103.103L99.8295 107.992L94.2248 104.982L94.0783 103.876L97.804 102.518L97.1939 99.6054L93.4682 100.687L92.1992 92.333L92.126 91.8694L98.9591 87.3058L101.701 88.1681C101.863 87.2977 101.92 86.5249 101.749 85.8497C101.497 84.8736 100.285 84.2635 98.7151 84.0601C98.6175 83.6534 98.5117 83.271 98.4141 82.9375C98.7883 82.9863 99.1706 83.0189 99.5611 83.0026C102.628 82.8887 105.036 80.8388 104.954 78.4228C104.922 77.4548 104.466 76.9748 103.759 76.6575C103.734 76.4379 103.694 76.2183 103.628 75.9986C103.181 74.51 102.856 72.7936 102.351 71.4026L102.628 71.4188L104.117 70.1986C104.076 68.9866 103.165 67.9779 101.969 67.8152L101.424 67.742L100.659 65.627L94.1841 66.3428L90.9628 70.8169L92.8988 74.8761V74.8842L92.9314 74.933L93.0046 75.0876L93.0127 75.0794C93.0127 75.0957 93.0127 75.112 93.0127 75.1282C92.6954 74.9981 92.3538 74.9737 92.0447 75.0957C91.2393 75.4048 90.9221 76.5355 91.3369 77.6174C91.7518 78.6994 92.7443 79.3257 93.5415 79.0247C93.5659 79.0166 93.5821 79.0003 93.6065 78.9922C93.7448 79.3176 93.8912 79.6348 94.0702 79.9196C94.119 80.0578 94.1922 80.1799 94.2573 80.31L94.3305 84.4668C92.5165 85.0037 90.8407 86.0124 89.9541 87.558C89.9297 87.5743 89.9134 87.5743 89.8971 87.5905C89.8971 87.5905 83.7961 100.362 89.2301 103.445C90.0029 108.049 91.1336 112.32 91.7274 114.386C92.5572 122.7 94.8267 143.223 94.8267 143.223L96.4536 143.362L97.9667 112.141C100.619 109.823 113.675 99.3614 106.101 124.652L107.777 124.855C107.891 124.449 117.791 102.607 104.938 103.103Z" fill="url(#paint12_linear_1380_8173)"/>
<path id="Vector_103" d="M97.3984 100.312L101.059 98.6855C101.059 98.6855 102.686 98.9947 102.588 99.5966C102.491 100.199 100.246 100.866 100.246 100.866L97.6018 101.02L97.3984 100.312Z" fill="#FFB38A"/>
<path id="Vector_104" d="M110.722 88.9565L113.227 88.265C113.227 88.265 114.382 87.9966 114.073 87.5492C113.764 87.1099 111.698 87.2807 111.698 87.2807L110.648 88.3138L110.722 88.9565Z" fill="#FFB38A"/>
<path id="Vector_105" d="M102.643 95.9527C102.521 95.8876 101.927 96.7499 101.325 97.8806C100.723 99.0113 100.332 99.9875 100.463 100.053C100.585 100.118 101.178 99.2554 101.78 98.1246C102.382 96.9939 102.773 96.0259 102.643 95.9527Z" fill="#FFB38A"/>
<path id="Vector_106" d="M103.539 95.782C103.409 95.725 102.889 96.5873 102.384 97.7099C101.88 98.8325 101.579 99.7923 101.717 99.8493C101.847 99.9062 102.368 99.044 102.872 97.9214C103.369 96.7988 103.678 95.847 103.539 95.782Z" fill="#FFB38A"/>
<path id="Vector_107" d="M104.109 96.4561C104.003 96.3992 103.507 97.1638 102.986 98.1481C102.474 99.1405 102.132 99.9865 102.238 100.035C102.336 100.084 102.84 99.3276 103.361 98.3433C103.873 97.3509 104.215 96.5049 104.109 96.4561Z" fill="#FFB38A"/>
<path id="Vector_108" d="M99.5117 99.362C99.5117 99.362 100.171 98.6543 100.26 98.3858C100.35 98.1174 100.423 97.2632 100.301 96.8158C100.195 96.4335 100.675 96.466 100.748 96.767C100.821 97.0599 100.919 97.8164 100.797 98.3452C100.724 98.6787 100.642 99.1017 100.374 99.4921C100.114 99.8745 99.5117 99.362 99.5117 99.362Z" fill="#FFB38A"/>
<path id="Vector_109" d="M114.463 89.5989C114.602 89.5907 114.496 88.8749 114.602 88.0533C114.691 87.3293 113.381 87.3293 113.235 87.3374C113.097 87.3456 114.17 87.6384 114.219 88.3624C114.268 89.0864 114.317 89.607 114.463 89.5989Z" fill="#FFB38A"/>
<path id="Vector_110" d="M114.17 90.1368C114.309 90.1124 114.244 89.2339 114.073 88.3879C113.902 87.5337 113.032 87.6964 112.885 87.729C112.739 87.7534 113.528 87.7778 113.699 88.6238C113.869 89.4698 114.032 90.1612 114.17 90.1368Z" fill="#FFB38A"/>
<path id="Vector_111" d="M113.813 90.7945C113.951 90.7457 113.805 89.9322 113.496 88.9723C113.187 88.0124 112.259 87.8335 112.129 87.8823C111.999 87.9311 112.699 88.1751 113.008 89.1431C113.317 90.0949 113.683 90.8352 113.813 90.7945Z" fill="#FFB38A"/>
<path id="Vector_112" d="M110.957 88.6884C110.957 88.6884 111.681 89.2009 111.795 89.4124C111.909 89.6239 112.088 90.3235 112.023 90.714C111.966 91.0475 112.429 90.958 112.462 90.7058C112.494 90.4536 112.494 89.811 112.324 89.388C112.21 89.1196 112.08 88.7698 111.779 88.4851C111.461 88.1922 110.957 88.6884 110.957 88.6884Z" fill="#FFB38A"/>
<path id="Vector_113" d="M110.818 90.1122L111.258 88.7944L110.648 88.3145L110.176 89.2988L110.818 90.1122Z" fill="#FFB38A"/>
</g>
</g>
<defs>
<linearGradient id="paint0_linear_1380_8173" x1="60.3853" y1="95.8405" x2="86.6195" y2="95.8405" gradientUnits="userSpaceOnUse">
<stop stop-color="#EAD67F"/>
<stop offset="0.9946" stop-color="#EAB57D"/>
</linearGradient>
<linearGradient id="paint1_linear_1380_8173" x1="62.2463" y1="131.6" x2="81.7694" y2="131.6" gradientUnits="userSpaceOnUse">
<stop stop-color="#EAD67F"/>
<stop offset="0.9946" stop-color="#EAB57D"/>
</linearGradient>
<linearGradient id="paint2_linear_1380_8173" x1="86.957" y1="156.341" x2="104.582" y2="156.341" gradientUnits="userSpaceOnUse">
<stop stop-color="#EAD67F"/>
<stop offset="0.9946" stop-color="#EAB57D"/>
</linearGradient>
<linearGradient id="paint3_linear_1380_8173" x1="144.849" y1="156.341" x2="162.474" y2="156.341" gradientUnits="userSpaceOnUse">
<stop stop-color="#EAD67F"/>
<stop offset="0.9946" stop-color="#EAB57D"/>
</linearGradient>
<linearGradient id="paint4_linear_1380_8173" x1="59.4354" y1="65.7755" x2="78.416" y2="65.7755" gradientUnits="userSpaceOnUse">
<stop stop-color="#EAD67F"/>
<stop offset="0.9946" stop-color="#EAB57D"/>
</linearGradient>
<linearGradient id="paint5_linear_1380_8173" x1="132.512" y1="93.9761" x2="151.289" y2="93.9761" gradientUnits="userSpaceOnUse">
<stop stop-color="#EAD67F"/>
<stop offset="0.9946" stop-color="#EAB57D"/>
</linearGradient>
<linearGradient id="paint6_linear_1380_8173" x1="44.4531" y1="157.209" x2="72.1673" y2="157.209" gradientUnits="userSpaceOnUse">
<stop stop-color="#EAD67F"/>
<stop offset="0.9946" stop-color="#EAB57D"/>
</linearGradient>
<linearGradient id="paint7_linear_1380_8173" x1="112.111" y1="145.487" x2="90.1477" y2="96.2727" gradientUnits="userSpaceOnUse">
<stop stop-color="#597B84"/>
<stop offset="1" stop-color="#599ABF"/>
</linearGradient>
<linearGradient id="paint8_linear_1380_8173" x1="114.529" y1="100.764" x2="87.889" y2="95.273" gradientUnits="userSpaceOnUse">
<stop stop-color="#AF506D"/>
<stop offset="0.9946" stop-color="#FF8C68"/>
</linearGradient>
<linearGradient id="paint9_linear_1380_8173" x1="113.893" y1="103.844" x2="87.2507" y2="98.353" gradientUnits="userSpaceOnUse">
<stop stop-color="#AF506D"/>
<stop offset="0.9946" stop-color="#FF6445"/>
</linearGradient>
<linearGradient id="paint10_linear_1380_8173" x1="99.8347" y1="103.147" x2="105.965" y2="103.147" gradientUnits="userSpaceOnUse">
<stop stop-color="#AF506D"/>
<stop offset="0.9946" stop-color="#FF6445"/>
</linearGradient>
<linearGradient id="paint11_linear_1380_8173" x1="61.1986" y1="65.4364" x2="72.4512" y2="65.4364" gradientUnits="userSpaceOnUse">
<stop stop-color="#EAD67F"/>
<stop offset="0.9946" stop-color="#EAB57D"/>
</linearGradient>
<linearGradient id="paint12_linear_1380_8173" x1="84.8867" y1="83.8954" x2="109.697" y2="122.128" gradientUnits="userSpaceOnUse">
<stop stop-color="#FFFCE9"/>
<stop offset="1" stop-color="#FF0000"/>
</linearGradient>
</defs>
</svg>
