<svg width="36" height="28" viewBox="0 0 36 28" fill="none" xmlns="http://www.w3.org/2000/svg">
<g id="Group">
<path id="Vector" d="M33.7188 9.65039H15.6387V19.7024H33.7188V9.65039Z" fill="#FCBE32"/>
<path id="Vector_2" d="M16.8157 18.0801H3.11328V27.0464H16.8157V18.0801Z" fill="#FCBE32"/>
<path id="Vector_3" d="M7.62136 18.0801H0V27.0464H7.62136V18.0801Z" fill="#FFD580"/>
<path id="Vector_4" d="M24.183 9.65039H15.6387V19.7024H24.183V9.65039Z" fill="#FFD580"/>
<path id="Vector_5" d="M13.7032 11.1504H3.11328V18.0801H13.7032V11.1504Z" fill="#FCBE32"/>
<path id="Vector_6" d="M35.9993 19.7031H13.252V22.943H35.9993V19.7031Z" fill="#FF0000"/>
<path id="Vector_7" d="M33.7182 22.9434H15.1094V25.2091H33.7182V22.9434Z" fill="#FF0000"/>
<path id="Vector_8" d="M30.2901 0.210938H15.6387V7.09847H30.2901V0.210938Z" fill="#FFE6E6"/>
<path id="Vector_9" d="M28.3301 6.20687H17.5905C17.1209 6.20687 16.7402 5.82621 16.7402 5.35658V1.95186C16.7402 1.48222 17.1209 1.10156 17.5905 1.10156H28.3301C28.7997 1.10156 29.1804 1.48222 29.1804 1.95186V5.35658C29.1804 5.82621 28.7997 6.20687 28.3301 6.20687Z" fill="#FF0000"/>
<path id="Vector_10" d="M19.8379 7.09766H17.2852V9.65044H19.8379V7.09766Z" fill="#FFE6E6"/>
<path id="Vector_11" d="M17.7229 25.209H16.4844V27.0668H17.7229V25.209Z" fill="#FF0000"/>
<path id="Vector_12" d="M33.2503 25.209H32.0117V27.0668H33.2503V25.209Z" fill="#FF0000"/>
<path id="Vector_13" d="M9.4396 11.1504H7.37305V12.7914H9.4396V11.1504Z" fill="#FFE9C5"/>
<path id="Vector_14" d="M4.41421 18.0801H2.34766V19.7211H4.41421V18.0801Z" fill="#FFE9C5"/>
<path id="Vector_15" d="M13.7032 17.248H3.11328V18.0809H13.7032V17.248Z" fill="#FFD580"/>
<path id="Vector_16" d="M33.7188 18.7695H15.6387V19.7034H33.7188V18.7695Z" fill="#FFD580"/>
<path id="Vector_17" d="M20.3986 9.65039H18.5625V11.4865H20.3986V9.65039Z" fill="#FFE9C5"/>
<path id="Vector_18" d="M33.7182 22.9434H15.1094V23.7607H33.7182V22.9434Z" fill="#E80000"/>
<path id="Vector_19" d="M19.8379 7.09766H17.2852V7.60701H19.8379V7.09766Z" fill="#FF0000"/>
</g>
</svg>
