<svg width="35" height="21" viewBox="0 0 35 21" fill="none" xmlns="http://www.w3.org/2000/svg">
<g id="Group">
<path id="Vector" d="M32.2032 14.5527H1.92773V17.9733H32.2032V14.5527Z" fill="#282B2E"/>
<path id="Vector_2" d="M30.4644 14.5527H1.92773V15.1385H30.4644V14.5527Z" fill="#282B2E"/>
<path id="Vector_3" d="M23.1875 2.17383L32.6041 3.11202C33.0826 3.15966 33.4584 3.54282 33.4971 4.02216L34.0352 10.7159C34.0352 10.7159 34.6778 10.905 34.6778 11.6987C34.6778 12.4924 34.6778 17.973 34.6778 17.973H30.4446L29.235 14.5335H23.1875V2.17383Z" fill="#FF0000"/>
<path id="Vector_4" d="M33.4596 3.82227L32.9961 4.04512L33.2279 10.5461L34.0354 10.7162L33.4596 3.82227Z" fill="#363C50"/>
<path id="Vector_5" d="M23.1885 0H0V14.5517H23.1885V0Z" fill="#282B2E"/>
<g id="Group_2">
<path id="Vector_6" d="M11.2935 20.5812C12.7338 20.5812 13.9015 19.4135 13.9015 17.9732C13.9015 16.5329 12.7338 15.3652 11.2935 15.3652C9.85317 15.3652 8.68555 16.5329 8.68555 17.9732C8.68555 19.4135 9.85317 20.5812 11.2935 20.5812Z" fill="#363C50"/>
<path id="Vector_7" d="M11.2931 19.6468C12.2177 19.6468 12.9671 18.8974 12.9671 17.9728C12.9671 17.0483 12.2177 16.2988 11.2931 16.2988C10.3686 16.2988 9.61914 17.0483 9.61914 17.9728C9.61914 18.8974 10.3686 19.6468 11.2931 19.6468Z" fill="white"/>
<path id="Vector_8" d="M11.2944 18.2528C11.4483 18.2528 11.5731 18.128 11.5731 17.9741C11.5731 17.8201 11.4483 17.6953 11.2944 17.6953C11.1404 17.6953 11.0156 17.8201 11.0156 17.9741C11.0156 18.128 11.1404 18.2528 11.2944 18.2528Z" fill="#363C50"/>
<g id="Group_3">
<path id="Vector_9" d="M11.2928 17.3882C11.3498 17.3882 11.3961 17.342 11.3961 17.2849C11.3961 17.2279 11.3498 17.1816 11.2928 17.1816C11.2357 17.1816 11.1895 17.2279 11.1895 17.2849C11.1895 17.342 11.2357 17.3882 11.2928 17.3882Z" fill="#363C50"/>
<path id="Vector_10" d="M11.2928 18.7632C11.3498 18.7632 11.3961 18.717 11.3961 18.6599C11.3961 18.6029 11.3498 18.5566 11.2928 18.5566C11.2357 18.5566 11.1895 18.6029 11.1895 18.6599C11.1895 18.717 11.2357 18.7632 11.2928 18.7632Z" fill="#363C50"/>
</g>
<g id="Group_4">
<path id="Vector_11" d="M11.9803 18.0757C12.0373 18.0757 12.0836 18.0295 12.0836 17.9724C12.0836 17.9154 12.0373 17.8691 11.9803 17.8691C11.9232 17.8691 11.877 17.9154 11.877 17.9724C11.877 18.0295 11.9232 18.0757 11.9803 18.0757Z" fill="#363C50"/>
<path id="Vector_12" d="M10.6053 18.0757C10.6623 18.0757 10.7086 18.0295 10.7086 17.9724C10.7086 17.9154 10.6623 17.8691 10.6053 17.8691C10.5482 17.8691 10.502 17.9154 10.502 17.9724C10.502 18.0295 10.5482 18.0757 10.6053 18.0757Z" fill="#363C50"/>
</g>
<g id="Group_5">
<path id="Vector_13" d="M11.7791 17.5914C11.8361 17.5914 11.8824 17.5451 11.8824 17.4881C11.8824 17.431 11.8361 17.3848 11.7791 17.3848C11.722 17.3848 11.6758 17.431 11.6758 17.4881C11.6758 17.5451 11.722 17.5914 11.7791 17.5914Z" fill="#363C50"/>
<path id="Vector_14" d="M10.8064 18.564C10.8635 18.564 10.9097 18.5178 10.9097 18.4607C10.9097 18.4037 10.8635 18.3574 10.8064 18.3574C10.7494 18.3574 10.7031 18.4037 10.7031 18.4607C10.7031 18.5178 10.7494 18.564 10.8064 18.564Z" fill="#363C50"/>
</g>
<g id="Group_6">
<path id="Vector_15" d="M10.8064 17.5914C10.8635 17.5914 10.9097 17.5451 10.9097 17.4881C10.9097 17.431 10.8635 17.3848 10.8064 17.3848C10.7494 17.3848 10.7031 17.431 10.7031 17.4881C10.7031 17.5451 10.7494 17.5914 10.8064 17.5914Z" fill="#363C50"/>
<path id="Vector_16" d="M11.7791 18.564C11.8361 18.564 11.8824 18.5178 11.8824 18.4607C11.8824 18.4037 11.8361 18.3574 11.7791 18.3574C11.722 18.3574 11.6758 18.4037 11.6758 18.4607C11.6758 18.5178 11.722 18.564 11.7791 18.564Z" fill="#363C50"/>
</g>
<path id="Vector_17" d="M11.2939 19.3008C12.0269 19.3008 12.6211 18.7066 12.6211 17.9736C12.6211 17.2407 12.0269 16.6465 11.2939 16.6465C10.561 16.6465 9.9668 17.2407 9.9668 17.9736C9.9668 18.7066 10.561 19.3008 11.2939 19.3008Z" stroke="#363C50" stroke-width="0.0221573" stroke-miterlimit="10"/>
</g>
<g id="Group_7">
<path id="Vector_18" d="M5.42241 20.5812C6.86275 20.5812 8.03038 19.4135 8.03038 17.9732C8.03038 16.5329 6.86275 15.3652 5.42241 15.3652C3.98208 15.3652 2.81445 16.5329 2.81445 17.9732C2.81445 19.4135 3.98208 20.5812 5.42241 20.5812Z" fill="#363C50"/>
<path id="Vector_19" d="M5.42205 19.6468C6.34658 19.6468 7.09606 18.8974 7.09606 17.9728C7.09606 17.0483 6.34658 16.2988 5.42205 16.2988C4.49752 16.2988 3.74805 17.0483 3.74805 17.9728C3.74805 18.8974 4.49752 19.6468 5.42205 19.6468Z" fill="white"/>
<path id="Vector_20" d="M5.42327 18.2528C5.57722 18.2528 5.70201 18.128 5.70201 17.9741C5.70201 17.8201 5.57722 17.6953 5.42327 17.6953C5.26933 17.6953 5.14453 17.8201 5.14453 17.9741C5.14453 18.128 5.26933 18.2528 5.42327 18.2528Z" fill="#363C50"/>
<g id="Group_8">
<path id="Vector_21" d="M5.42166 17.3882C5.47871 17.3882 5.52496 17.342 5.52496 17.2849C5.52496 17.2279 5.47871 17.1816 5.42166 17.1816C5.36461 17.1816 5.31836 17.2279 5.31836 17.2849C5.31836 17.342 5.36461 17.3882 5.42166 17.3882Z" fill="#363C50"/>
<path id="Vector_22" d="M5.42166 18.7632C5.47871 18.7632 5.52496 18.717 5.52496 18.6599C5.52496 18.6029 5.47871 18.5566 5.42166 18.5566C5.36461 18.5566 5.31836 18.6029 5.31836 18.6599C5.31836 18.717 5.36461 18.7632 5.42166 18.7632Z" fill="#363C50"/>
</g>
<g id="Group_9">
<path id="Vector_23" d="M6.10916 18.0757C6.16622 18.0757 6.21246 18.0295 6.21246 17.9724C6.21246 17.9154 6.16622 17.8691 6.10916 17.8691C6.05211 17.8691 6.00586 17.9154 6.00586 17.9724C6.00586 18.0295 6.05211 18.0757 6.10916 18.0757Z" fill="#363C50"/>
<path id="Vector_24" d="M4.73416 18.0757C4.79122 18.0757 4.83747 18.0295 4.83747 17.9724C4.83747 17.9154 4.79122 17.8691 4.73416 17.8691C4.67711 17.8691 4.63086 17.9154 4.63086 17.9724C4.63086 18.0295 4.67711 18.0757 4.73416 18.0757Z" fill="#363C50"/>
</g>
<g id="Group_10">
<path id="Vector_25" d="M5.90994 17.5914C5.96699 17.5914 6.01325 17.5451 6.01325 17.4881C6.01325 17.431 5.96699 17.3848 5.90994 17.3848C5.85289 17.3848 5.80664 17.431 5.80664 17.4881C5.80664 17.5451 5.85289 17.5914 5.90994 17.5914Z" fill="#363C50"/>
<path id="Vector_26" d="M4.93729 18.564C4.99434 18.564 5.04059 18.5178 5.04059 18.4607C5.04059 18.4037 4.99434 18.3574 4.93729 18.3574C4.88023 18.3574 4.83398 18.4037 4.83398 18.4607C4.83398 18.5178 4.88023 18.564 4.93729 18.564Z" fill="#363C50"/>
</g>
<g id="Group_11">
<path id="Vector_27" d="M4.93729 17.5914C4.99434 17.5914 5.04059 17.5451 5.04059 17.4881C5.04059 17.431 4.99434 17.3848 4.93729 17.3848C4.88023 17.3848 4.83398 17.431 4.83398 17.4881C4.83398 17.5451 4.88023 17.5914 4.93729 17.5914Z" fill="#363C50"/>
<path id="Vector_28" d="M5.90994 18.564C5.96699 18.564 6.01325 18.5178 6.01325 18.4607C6.01325 18.4037 5.96699 18.3574 5.90994 18.3574C5.85289 18.3574 5.80664 18.4037 5.80664 18.4607C5.80664 18.5178 5.85289 18.564 5.90994 18.564Z" fill="#363C50"/>
</g>
<path id="Vector_29" d="M5.42284 19.3008C6.1558 19.3008 6.74997 18.7066 6.74997 17.9736C6.74997 17.2407 6.1558 16.6465 5.42284 16.6465C4.68988 16.6465 4.0957 17.2407 4.0957 17.9736C4.0957 18.7066 4.68988 19.3008 5.42284 19.3008Z" stroke="#363C50" stroke-width="0.0221573" stroke-miterlimit="10"/>
</g>
<g id="Group_12">
<path id="Vector_30" d="M26.567 20.5812C28.0073 20.5812 29.1749 19.4135 29.1749 17.9732C29.1749 16.5329 28.0073 15.3652 26.567 15.3652C25.1266 15.3652 23.959 16.5329 23.959 17.9732C23.959 19.4135 25.1266 20.5812 26.567 20.5812Z" fill="#363C50"/>
<path id="Vector_31" d="M26.5666 19.6468C27.4911 19.6468 28.2406 18.8974 28.2406 17.9728C28.2406 17.0483 27.4911 16.2988 26.5666 16.2988C25.6421 16.2988 24.8926 17.0483 24.8926 17.9728C24.8926 18.8974 25.6421 19.6468 26.5666 19.6468Z" fill="white"/>
<path id="Vector_32" d="M26.5678 18.2528C26.7218 18.2528 26.8465 18.128 26.8465 17.9741C26.8465 17.8201 26.7218 17.6953 26.5678 17.6953C26.4139 17.6953 26.2891 17.8201 26.2891 17.9741C26.2891 18.128 26.4139 18.2528 26.5678 18.2528Z" fill="#363C50"/>
<g id="Group_13">
<path id="Vector_33" d="M26.5662 17.3882C26.6233 17.3882 26.6695 17.342 26.6695 17.2849C26.6695 17.2279 26.6233 17.1816 26.5662 17.1816C26.5091 17.1816 26.4629 17.2279 26.4629 17.2849C26.4629 17.342 26.5091 17.3882 26.5662 17.3882Z" fill="#363C50"/>
<path id="Vector_34" d="M26.5662 18.7632C26.6233 18.7632 26.6695 18.717 26.6695 18.6599C26.6695 18.6029 26.6233 18.5566 26.5662 18.5566C26.5091 18.5566 26.4629 18.6029 26.4629 18.6599C26.4629 18.717 26.5091 18.7632 26.5662 18.7632Z" fill="#363C50"/>
</g>
<g id="Group_14">
<path id="Vector_35" d="M27.2537 18.0757C27.3107 18.0757 27.357 18.0295 27.357 17.9724C27.357 17.9154 27.3107 17.8691 27.2537 17.8691C27.1966 17.8691 27.1504 17.9154 27.1504 17.9724C27.1504 18.0295 27.1966 18.0757 27.2537 18.0757Z" fill="#363C50"/>
<path id="Vector_36" d="M25.8787 18.0757C25.9357 18.0757 25.982 18.0295 25.982 17.9724C25.982 17.9154 25.9357 17.8691 25.8787 17.8691C25.8216 17.8691 25.7754 17.9154 25.7754 17.9724C25.7754 18.0295 25.8216 18.0757 25.8787 18.0757Z" fill="#363C50"/>
</g>
<g id="Group_15">
<path id="Vector_37" d="M27.0545 17.5914C27.1115 17.5914 27.1578 17.5451 27.1578 17.4881C27.1578 17.431 27.1115 17.3848 27.0545 17.3848C26.9974 17.3848 26.9512 17.431 26.9512 17.4881C26.9512 17.5451 26.9974 17.5914 27.0545 17.5914Z" fill="#363C50"/>
<path id="Vector_38" d="M26.0818 18.564C26.1389 18.564 26.1851 18.5178 26.1851 18.4607C26.1851 18.4037 26.1389 18.3574 26.0818 18.3574C26.0248 18.3574 25.9785 18.4037 25.9785 18.4607C25.9785 18.5178 26.0248 18.564 26.0818 18.564Z" fill="#363C50"/>
</g>
<g id="Group_16">
<path id="Vector_39" d="M26.0818 17.5914C26.1389 17.5914 26.1851 17.5451 26.1851 17.4881C26.1851 17.431 26.1389 17.3848 26.0818 17.3848C26.0248 17.3848 25.9785 17.431 25.9785 17.4881C25.9785 17.5451 26.0248 17.5914 26.0818 17.5914Z" fill="#363C50"/>
<path id="Vector_40" d="M27.0545 18.564C27.1115 18.564 27.1578 18.5178 27.1578 18.4607C27.1578 18.4037 27.1115 18.3574 27.0545 18.3574C26.9974 18.3574 26.9512 18.4037 26.9512 18.4607C26.9512 18.5178 26.9974 18.564 27.0545 18.564Z" fill="#363C50"/>
</g>
<path id="Vector_41" d="M26.5674 19.3008C27.3003 19.3008 27.8945 18.7066 27.8945 17.9736C27.8945 17.2407 27.3003 16.6465 26.5674 16.6465C25.8344 16.6465 25.2402 17.2407 25.2402 17.9736C25.2402 18.7066 25.8344 19.3008 26.5674 19.3008Z" stroke="#363C50" stroke-width="0.0221573" stroke-miterlimit="10"/>
</g>
<path id="Vector_42" d="M15.7007 19.3702H21.8869C22.2609 19.3702 22.5641 19.067 22.5641 18.6929V16.1734C22.5641 15.7993 22.2609 15.4961 21.8869 15.4961H15.7007C15.3267 15.4961 15.0234 15.7993 15.0234 16.1734V18.6932C15.0234 19.0672 15.3267 19.3702 15.7007 19.3702Z" fill="#363C50"/>
<path id="Vector_43" d="M30.7932 4.28486L26.0234 3.97852V9.95987L32.3276 10.4842L32.2032 5.78833C32.2032 4.99396 31.5862 4.33585 30.7932 4.28486Z" fill="#363C50"/>
<path id="Vector_44" d="M34.6777 11.6973H34.0352V13.2847L34.6777 14.0029V11.6973Z" fill="#282B2E"/>
<path id="Vector_45" d="M34.1392 11.8164H23.1875" stroke="#282B2E" stroke-width="0.0443146" stroke-miterlimit="10"/>
<path id="Vector_46" d="M34.9998 16.1016H33.2988V18.4586H34.9998V16.1016Z" fill="#363C50"/>
<path id="Vector_47" d="M2.34352 16.1016H0.642578V18.4586H2.34352V16.1016Z" fill="#363C50"/>
<path id="Vector_48" d="M22.233 16.6445H15.3359V17.1809H22.233V16.6445Z" fill="white"/>
</g>
</svg>
