<svg width="76" height="43" viewBox="0 0 76 43" fill="none" xmlns="http://www.w3.org/2000/svg">
<g clip-path="url(#clip0_3601_21445)">
<path d="M7.29591 27.7362C5.68306 27.7362 4.25921 27.4338 3.02436 26.8291C2.45225 26.5311 1.92522 26.1853 1.4433 25.7915C0.524872 25.0411 0.648137 23.677 1.50525 22.8573L1.85958 22.5184C2.70904 21.706 4.07781 21.9081 5.10344 22.4825C5.75866 22.81 6.47689 22.9738 7.25811 22.9738C8.03934 22.9738 8.71977 22.81 9.29943 22.4825C9.90418 22.1549 10.3578 21.6761 10.6602 21.0461C10.9879 20.4162 11.1517 19.6477 11.1517 18.7406V3.37618C11.1517 1.94628 12.311 0.787109 13.741 0.787109C15.1711 0.787109 16.3304 1.94628 16.3304 3.37618V18.4382C16.3304 20.3028 15.9524 21.9407 15.1964 23.3518C14.4655 24.7376 13.4198 25.8212 12.0589 26.6023C10.7232 27.3582 9.1356 27.7362 7.29591 27.7362Z" fill="white"/>
<path d="M27.047 27.4337C25.8149 27.4337 24.7064 26.6852 24.2463 25.5424L20.1658 15.4086C19.4903 13.7309 20.7254 11.9023 22.5341 11.9023C23.6026 11.9023 24.558 12.5677 24.9286 13.5697L28.1832 22.3689H26.0285L29.9908 11.9023L33.6156 16.1308L29.8498 25.5369C29.3911 26.6825 28.2812 27.4337 27.047 27.4337Z" fill="white"/>
<path d="M65.9823 28.152C64.0417 28.152 62.2399 27.8118 60.5766 27.1314C58.9134 26.4259 57.4518 25.4558 56.1917 24.2211C54.9569 22.9612 53.9992 21.4997 53.3188 19.8367C52.6636 18.1737 52.3359 16.3845 52.3359 14.4695C52.3359 12.5545 52.6636 10.7655 53.3188 9.10239C53.9992 7.43934 54.9569 5.99046 56.1917 4.75577C57.4518 3.52107 58.9007 2.55096 60.5388 1.84542C62.2021 1.13988 64.0166 0.787109 65.9823 0.787109C68.0991 0.787109 69.964 1.13988 71.5768 1.84542C72.4333 2.20671 73.2365 2.64261 73.9864 3.15312C75.0839 3.90027 75.0821 5.44634 74.1433 6.38506C73.1787 7.34953 71.6044 7.27214 70.4076 6.61759C70.1764 6.49115 69.9362 6.3745 69.6868 6.26764C68.6283 5.81408 67.3935 5.5873 65.9823 5.5873C64.7474 5.5873 63.6134 5.80148 62.5801 6.22984C61.5721 6.63301 60.6901 7.23776 59.934 8.04408C59.178 8.82522 58.5984 9.77014 58.1952 10.8788C57.792 11.9624 57.5903 13.1593 57.5903 14.4695C57.5903 15.805 57.792 17.0145 58.1952 18.098C58.5984 19.1816 59.178 20.1265 59.934 20.9328C60.6901 21.7139 61.5721 22.3187 62.5801 22.747C63.6134 23.1754 64.7474 23.3896 65.9823 23.3896C67.4691 23.3896 68.7417 23.1628 69.8001 22.7092C70.0585 22.6011 70.3068 22.4822 70.5451 22.3526C71.7527 21.6958 73.3447 21.6043 74.3167 22.5762C75.2462 23.5055 75.2564 25.0347 74.175 25.7817C73.4059 26.313 72.5777 26.7629 71.6902 27.1314C70.0522 27.8118 68.1495 28.152 65.9823 28.152Z" fill="white"/>
<path d="M47.7265 0.787109H20.9031C19.6352 0.787109 18.6074 1.8148 18.6074 3.08253C18.6074 4.35025 19.6352 5.37794 20.9031 5.37794H47.7265C48.9944 5.37794 50.0222 4.35025 50.0222 3.08253C50.0222 1.8148 48.9944 0.787109 47.7265 0.787109Z" fill="white"/>
<path d="M29.9648 11.9023H47.7263C48.9942 11.9023 50.022 12.93 50.022 14.1978C50.022 15.4655 48.9942 16.4932 47.7263 16.4932H29.9648V11.9023Z" fill="white"/>
<path d="M47.7269 23.0176H37.8191C36.5513 23.0176 35.5234 24.0453 35.5234 25.313C35.5234 26.5807 36.5513 27.6084 37.8191 27.6084H47.7269C48.9947 27.6084 50.0226 26.5807 50.0226 25.313C50.0226 24.0453 48.9947 23.0176 47.7269 23.0176Z" fill="white"/>
<path d="M4.77911 40.4531L3.38711 35.7731H3.35511C3.36044 35.8798 3.36844 36.0318 3.37911 36.2291C3.38978 36.4211 3.39778 36.6318 3.40311 36.8611C3.41378 37.0851 3.41911 37.2958 3.41911 37.4931V40.4531H2.45911V34.7411H3.93111L5.29111 39.2291H5.31511L6.69911 34.7411H8.17911V40.4531H7.17111V37.4451C7.17111 37.2638 7.17378 37.0665 7.17911 36.8531C7.18444 36.6345 7.19244 36.4291 7.20311 36.2371C7.21378 36.0398 7.22178 35.8878 7.22711 35.7811H7.19511L5.76311 40.4531H4.77911ZM22.7696 37.5891C22.7696 38.0318 22.7189 38.4345 22.6176 38.7971C22.5163 39.1545 22.3589 39.4638 22.1456 39.7251C21.9376 39.9865 21.6736 40.1865 21.3536 40.3251C21.0336 40.4638 20.6576 40.5331 20.2256 40.5331C19.7883 40.5331 19.4096 40.4638 19.0896 40.3251C18.7696 40.1811 18.5056 39.9811 18.2976 39.7251C18.0896 39.4638 17.9323 39.1518 17.8256 38.7891C17.7243 38.4265 17.6736 38.0238 17.6736 37.5811C17.6736 36.9891 17.7643 36.4745 17.9456 36.0371C18.1323 35.5998 18.4149 35.2611 18.7936 35.0211C19.1723 34.7758 19.6523 34.6531 20.2336 34.6531C20.8096 34.6531 21.2843 34.7758 21.6576 35.0211C22.0309 35.2611 22.3083 35.6025 22.4896 36.0451C22.6763 36.4825 22.7696 36.9971 22.7696 37.5891ZM18.8096 37.5891C18.8096 38.0211 18.8576 38.3918 18.9536 38.7011C19.0496 39.0105 19.2016 39.2478 19.4096 39.4131C19.6229 39.5785 19.8949 39.6611 20.2256 39.6611C20.5563 39.6611 20.8256 39.5785 21.0336 39.4131C21.2416 39.2478 21.3936 39.0105 21.4896 38.7011C21.5856 38.3918 21.6336 38.0211 21.6336 37.5891C21.6336 36.9438 21.5216 36.4371 21.2976 36.0691C21.0789 35.7011 20.7216 35.5171 20.2256 35.5171C19.8949 35.5171 19.6229 35.5998 19.4096 35.7651C19.2016 35.9305 19.0496 36.1678 18.9536 36.4771C18.8576 36.7865 18.8096 37.1571 18.8096 37.5891ZM36.3964 34.7411L34.5564 40.4531H33.3644L31.5324 34.7411H32.6764L33.6764 38.2371C33.7031 38.3331 33.7351 38.4585 33.7724 38.6131C33.8151 38.7625 33.8524 38.9171 33.8844 39.0771C33.9218 39.2318 33.9484 39.3705 33.9644 39.4931C33.9804 39.3705 34.0044 39.2318 34.0364 39.0771C34.0738 38.9225 34.1111 38.7678 34.1484 38.6131C34.1858 38.4585 34.2204 38.3331 34.2524 38.2371L35.2444 34.7411H36.3964ZM48.5516 40.4531H45.4716V34.7411H48.5516V35.5971H46.5436V37.0531H48.4236V37.9091H46.5436V39.5891H48.5516V40.4531ZM59.6433 34.7411C60.118 34.7411 60.51 34.8025 60.8193 34.9251C61.1286 35.0478 61.358 35.2345 61.5073 35.4851C61.6566 35.7305 61.7313 36.0425 61.7313 36.4211C61.7313 36.6985 61.686 36.9358 61.5953 37.1331C61.5046 37.3305 61.382 37.4958 61.2273 37.6291C61.078 37.7571 60.9153 37.8611 60.7393 37.9411L62.2753 40.4531H61.0593L59.8193 38.1971H59.1233V40.4531H58.0513V34.7411H59.6433ZM59.5953 35.5971H59.1233V37.3571H59.6113C59.8406 37.3571 60.03 37.3225 60.1793 37.2531C60.334 37.1838 60.4486 37.0825 60.5233 36.9491C60.6033 36.8158 60.6433 36.6505 60.6433 36.4531C60.6433 36.2451 60.606 36.0798 60.5313 35.9571C60.4566 35.8291 60.342 35.7385 60.1873 35.6851C60.0326 35.6265 59.8353 35.5971 59.5953 35.5971ZM74.5815 38.8931C74.5815 39.2291 74.5042 39.5198 74.3495 39.7651C74.2002 40.0105 73.9762 40.1998 73.6775 40.3331C73.3842 40.4665 73.0215 40.5331 72.5895 40.5331C72.3762 40.5331 72.1789 40.5198 71.9975 40.4931C71.8162 40.4718 71.6455 40.4371 71.4855 40.3891C71.3309 40.3411 71.1815 40.2825 71.0375 40.2131V39.2531C71.2775 39.3598 71.5362 39.4585 71.8135 39.5491C72.0962 39.6345 72.3709 39.6771 72.6375 39.6771C72.8402 39.6771 73.0055 39.6478 73.1335 39.5891C73.2615 39.5251 73.3549 39.4398 73.4135 39.3331C73.4775 39.2211 73.5095 39.0931 73.5095 38.9491C73.5095 38.7891 73.4695 38.6531 73.3895 38.5411C73.3149 38.4291 73.1975 38.3251 73.0375 38.2291C72.8775 38.1331 72.6695 38.0345 72.4135 37.9331C72.2322 37.8531 72.0589 37.7678 71.8935 37.6771C71.7335 37.5811 71.5922 37.4665 71.4695 37.3331C71.3522 37.1998 71.2589 37.0425 71.1895 36.8611C71.1255 36.6798 71.0935 36.4665 71.0935 36.2211C71.0935 35.8958 71.1709 35.6158 71.3255 35.3811C71.4802 35.1465 71.6962 34.9678 71.9735 34.8451C72.2509 34.7225 72.5735 34.6611 72.9415 34.6611C73.2509 34.6611 73.5335 34.6931 73.7895 34.7571C74.0509 34.8211 74.2962 34.9118 74.5255 35.0291L74.1895 35.8531C73.9709 35.7518 73.7549 35.6718 73.5415 35.6131C73.3335 35.5545 73.1229 35.5251 72.9095 35.5251C72.7442 35.5251 72.6055 35.5545 72.4935 35.6131C72.3815 35.6665 72.2962 35.7438 72.2375 35.8451C72.1842 35.9465 72.1575 36.0638 72.1575 36.1971C72.1575 36.3518 72.1949 36.4825 72.2695 36.5891C72.3442 36.6958 72.4615 36.7971 72.6215 36.8931C72.7815 36.9838 72.9895 37.0905 73.2455 37.2131C73.5282 37.3411 73.7682 37.4771 73.9655 37.6211C74.1682 37.7651 74.3202 37.9385 74.4215 38.1411C74.5282 38.3438 74.5815 38.5945 74.5815 38.8931Z" fill="white"/>
</g>
<defs>
<clipPath id="clip0_3601_21445">
<rect width="76" height="41.4249" fill="white" transform="translate(0 0.787109)"/>
</clipPath>
</defs>
</svg>
