<svg width="24" height="25" viewBox="0 0 24 25" fill="none" xmlns="http://www.w3.org/2000/svg">
<g id="vuesax/bold/call">
<g id="call">
<path id="Vector" d="M11.05 15.45L9.2 17.3C8.81 17.69 8.19 17.69 7.79 17.31C7.68 17.2 7.57 17.1 7.46 16.99C6.43 15.95 5.5 14.86 4.67 13.72C3.85 12.58 3.19 11.44 2.71 10.31C2.24 9.17 2 8.08 2 7.04C2 6.36 2.12 5.71 2.36 5.11C2.6 4.5 2.98 3.94 3.51 3.44C4.15 2.81 4.85 2.5 5.59 2.5C5.87 2.5 6.15 2.56 6.4 2.68C6.66 2.8 6.89 2.98 7.07 3.24L9.39 6.51C9.57 6.76 9.7 6.99 9.79 7.21C9.88 7.42 9.93 7.63 9.93 7.82C9.93 8.06 9.86 8.3 9.72 8.53C9.59 8.76 9.4 9 9.16 9.24L8.4 10.03C8.29 10.14 8.24 10.27 8.24 10.43C8.24 10.51 8.25 10.58 8.27 10.66C8.3 10.74 8.33 10.8 8.35 10.86C8.53 11.19 8.84 11.62 9.28 12.14C9.73 12.66 10.21 13.19 10.73 13.72C10.83 13.82 10.94 13.92 11.04 14.02C11.44 14.41 11.45 15.05 11.05 15.45Z" fill="white"/>
<path id="Vector_2" d="M21.9696 18.8291C21.9696 19.1091 21.9196 19.3991 21.8196 19.6791C21.7896 19.7591 21.7596 19.8391 21.7196 19.9191C21.5496 20.2791 21.3296 20.6191 21.0396 20.9391C20.5496 21.4791 20.0096 21.8691 19.3996 22.1191C19.3896 22.1191 19.3796 22.1291 19.3696 22.1291C18.7796 22.3691 18.1396 22.4991 17.4496 22.4991C16.4296 22.4991 15.3396 22.2591 14.1896 21.7691C13.0396 21.2791 11.8896 20.6191 10.7496 19.7891C10.3596 19.4991 9.96961 19.2091 9.59961 18.8991L12.8696 15.6291C13.1496 15.8391 13.3996 15.9991 13.6096 16.1091C13.6596 16.1291 13.7196 16.1591 13.7896 16.1891C13.8696 16.2191 13.9496 16.2291 14.0396 16.2291C14.2096 16.2291 14.3396 16.1691 14.4496 16.0591L15.2096 15.3091C15.4596 15.0591 15.6996 14.8691 15.9296 14.7491C16.1596 14.6091 16.3896 14.5391 16.6396 14.5391C16.8296 14.5391 17.0296 14.5791 17.2496 14.6691C17.4696 14.7591 17.6996 14.8891 17.9496 15.0591L21.2596 17.4091C21.5196 17.5891 21.6996 17.7991 21.8096 18.0491C21.9096 18.2991 21.9696 18.5491 21.9696 18.8291Z" fill="white"/>
</g>
</g>
</svg>
