<svg width="89" height="89" viewBox="0 0 89 89" fill="none" xmlns="http://www.w3.org/2000/svg">
<g id="house-svgrepo-com 1" clip-path="url(#clip0_773_2958)">
<g id="Group">
<path id="Vector" d="M77.875 83.4376C77.875 84.9729 76.629 86.2189 75.0938 86.2189H52.8438V65.3595C52.8438 64.5905 52.2221 63.9689 51.4531 63.9689H37.5469C36.7779 63.9689 36.1562 64.5905 36.1562 65.3595V86.2189H13.9062C12.371 86.2189 11.125 84.9729 11.125 83.4376V43.681L44.5125 10.2949L77.875 43.6574V83.4376Z" fill="#FF0000"/>
<path id="Vector_2" d="M19.4688 8.34375H25.0312V17.5233L19.4688 23.0746V8.34375Z" fill="#FF0000"/>
<path id="Vector_3" d="M50.0625 66.75H38.9375V86.2188H50.0625V66.75Z" fill="#F9EBB2"/>
<path id="Vector_4" d="M84.8281 45.8906C84.4443 45.8906 83.991 45.8406 83.7407 45.5889L45.4957 7.34389C45.2245 7.07272 44.8685 6.93644 44.5125 6.93644C44.1565 6.93644 43.8005 7.07272 43.5293 7.34389L5.27186 45.6028C5.02016 45.8545 4.55569 45.8906 4.17188 45.8906C3.40286 45.8906 2.78125 45.269 2.78125 44.5C2.78125 44.1162 2.8035 43.635 3.0552 43.3833L43.158 3.35141C43.158 3.35141 43.6768 2.78125 44.5125 2.78125C45.3483 2.78125 45.8781 3.33472 45.8781 3.33472L85.9365 43.3917C86.1882 43.6434 86.2188 44.1162 86.2188 44.5C86.2188 45.2676 85.5971 45.8906 84.8281 45.8906Z" fill="#FF0000"/>
<g id="Group_2">
<path id="Vector_5" d="M87.9028 41.4253L47.8903 1.41148C47.8903 1.41148 46.5873 0 44.5111 0C42.4349 0 41.207 1.37811 41.207 1.37811L27.8125 14.7462V6.95312C27.8125 6.18411 27.1909 5.5625 26.4219 5.5625H18.0781C17.3091 5.5625 16.6875 6.18411 16.6875 6.95312V25.8503L1.08886 41.417C0.33375 42.1721 0 43.3486 0 44.5C0 46.8029 1.86761 48.6719 4.17188 48.6719C5.32331 48.6719 6.48309 48.3228 7.2382 47.5677L8.34375 46.4622V83.4375C8.34375 86.5122 10.8316 89 13.9062 89H75.0938C78.1684 89 80.6562 86.5122 80.6562 83.4375V46.4385L81.7743 47.5566C82.5294 48.3089 83.6767 48.6719 84.8281 48.6719C87.1324 48.6719 89 46.8043 89 44.5C89 43.3472 88.6579 42.1804 87.9028 41.4253ZM19.4688 8.34375H25.0312V17.5233L19.4688 23.0746V8.34375ZM50.0625 86.2188H38.9375V66.75H50.0625V86.2188ZM77.875 83.4375C77.875 84.9727 76.629 86.2188 75.0938 86.2188H52.8438V65.3594C52.8438 64.5904 52.2221 63.9688 51.4531 63.9688H37.5469C36.7779 63.9688 36.1562 64.5904 36.1562 65.3594V86.2188H13.9062C12.371 86.2188 11.125 84.9727 11.125 83.4375V43.6809L44.5125 10.2948L77.875 43.6573V83.4375ZM84.8281 45.8906C84.4443 45.8906 83.991 45.8406 83.7407 45.5889L45.4957 7.34389C45.2245 7.07272 44.8685 6.93644 44.5125 6.93644C44.1565 6.93644 43.8005 7.07272 43.5293 7.34389L5.27186 45.6028C5.02016 45.8545 4.55569 45.8906 4.17188 45.8906C3.40286 45.8906 2.78125 45.269 2.78125 44.5C2.78125 44.1162 2.8035 43.635 3.0552 43.3833L43.158 3.35141C43.158 3.35141 43.6768 2.78125 44.5125 2.78125C45.3483 2.78125 45.8781 3.33472 45.8781 3.33472L85.9365 43.3917C86.1882 43.6434 86.2188 44.1162 86.2188 44.5C86.2188 45.2676 85.5971 45.8906 84.8281 45.8906Z" fill="#FF0000"/>
<path id="Vector_6" d="M31.9844 44.5H20.8594C20.0904 44.5 19.4688 45.1216 19.4688 45.8906V57.0156C19.4688 57.7846 20.0904 58.4062 20.8594 58.4062H31.9844C32.7534 58.4062 33.375 57.7846 33.375 57.0156V45.8906C33.375 45.1216 32.7534 44.5 31.9844 44.5ZM30.5938 55.625H22.25V47.2812H30.5938V55.625Z" fill="#FF0000"/>
<path id="Vector_7" d="M57.0156 58.4062H68.1406C68.9096 58.4062 69.5312 57.7846 69.5312 57.0156V45.8906C69.5312 45.1216 68.9096 44.5 68.1406 44.5H57.0156C56.2466 44.5 55.625 45.1216 55.625 45.8906V57.0156C55.625 57.7846 56.2466 58.4062 57.0156 58.4062ZM58.4062 47.2812H66.75V55.625H58.4062V47.2812Z" fill="#FF0000"/>
</g>
<path id="Vector_8" d="M50.0625 66.75H38.9375V86.2188H50.0625V66.75Z" fill="#FFE6E6"/>
<g id="Group_3">
<path id="Vector_9" d="M30.5938 47.2812H22.25V55.625H30.5938V47.2812Z" fill="#FF0000"/>
<path id="Vector_10" d="M66.75 47.2812H58.4062V55.625H66.75V47.2812Z" fill="#FF0000"/>
</g>
</g>
</g>
<defs>
<clipPath id="clip0_773_2958">
<rect width="89" height="89" fill="white"/>
</clipPath>
</defs>
</svg>
