<svg width="396" height="352" viewBox="0 0 396 352" fill="none" xmlns="http://www.w3.org/2000/svg">
<rect width="396" height="352" rx="15" fill="white"/>
<path opacity="0.4" d="M302.843 277.099C269.002 269.861 94.8413 274.179 67.7383 286.37C87.4666 300.308 208.657 308.906 302.843 277.099Z" fill="#431F00"/>
<path d="M116.543 268.563C115.532 261.064 110.877 255.511 106.136 256.147C101.394 256.784 98.374 263.372 99.3723 270.872C100.383 278.359 105.037 283.924 109.779 283.288C114.521 282.639 117.553 276.05 116.543 268.563Z" fill="#4F3D33"/>
<path d="M211.877 264.87C210.866 257.37 206.211 251.818 201.47 252.454C196.728 253.09 193.708 259.679 194.706 267.178C195.717 274.678 200.371 280.231 205.113 279.594C209.855 278.958 212.887 272.357 211.877 264.87Z" fill="#4F3D33"/>
<path d="M127.536 174.377L110.877 96.6119L112.824 91.8577L212.426 53.4118L220.624 53L317.394 96.0504L285.824 260.079L198.887 264.596L127.536 174.377Z" fill="#282B2E"/>
<path opacity="0.5" d="M210.679 255.96L286.734 254.014L285.823 260.078L209.381 264.371L210.679 255.96Z" fill="#431F00"/>
<path opacity="0.3" d="M285.823 260.079L317.393 96.0504L220.623 53L217.379 53.1622L211.602 263.934L285.823 260.079Z" fill="#282B2E"/>
<path d="M216.444 225.252L205.138 163.609L180.843 152.641L115.032 168.538L98.8351 228.709L47.1621 241.849L51.6793 271.56L142.098 274.018L211.003 269.226L216.444 225.252Z" fill="#FF0000"/>
<path d="M146.266 273.768L136.782 236.795L47.3125 241.849L51.6799 271.56L146.266 273.768Z" fill="#FF0000"/>
<path d="M208.408 269.387L280.833 265.818L282.056 260.078L211.802 263.946L208.408 269.387Z" fill="#443225"/>
<path d="M117.178 171.295L102.316 228.096L175.814 220.672L176.85 158.691L117.178 171.295Z" fill="#FF8A8A"/>
<path d="M128.459 177.635L137.631 181.728L141.736 225.427L138.067 225.652L128.459 177.635Z" fill="#FF5454"/>
<path opacity="0.2" d="M177.351 220.671L182.392 156.807L205.876 163.607L216.857 224.939L212.465 264.37L208.259 271.421L147.003 273.866L137.52 236.793L177.351 220.671Z" fill="#E80000"/>
<path d="M192.261 218.14L212.014 219.887L202.992 166.379L184.898 159.504L192.261 218.14Z" fill="#8C0000"/>
<path d="M183.251 160.926L179.607 218.776L187.993 218.464L183.251 160.926Z" fill="#8C0000"/>
<path d="M277.115 266.268C275.992 257.882 270.776 251.656 265.473 252.379C260.169 253.091 256.788 260.465 257.911 268.851C259.034 277.236 264.25 283.463 269.553 282.739C274.856 282.028 278.25 274.653 277.115 266.268Z" fill="#33241B"/>
<path d="M275.267 267.292C274.456 261.289 271.099 256.785 267.755 257.234C264.411 257.683 262.352 262.912 263.163 268.914C263.974 274.916 267.331 279.421 270.675 278.971C274.007 278.522 276.066 273.294 275.267 267.292Z" fill="#FFF1CF"/>
<path d="M142.546 226.025L173.605 217.664L176.849 158.691L117.178 171.295L138.403 180.841L142.546 226.025Z" fill="#8C0000"/>
<path d="M268.478 116.066C251.046 114.307 234.662 135.221 231.879 162.785C229.097 190.35 240.963 214.134 258.396 215.893C275.828 217.653 292.212 196.739 294.995 169.174C297.777 141.609 285.911 117.826 268.478 116.066ZM292.349 168.9C289.791 194.156 274.78 213.323 258.808 211.713C242.835 210.103 231.967 188.316 234.512 163.06C237.07 137.804 252.082 118.637 268.054 120.247C284.026 121.869 294.895 143.643 292.349 168.9Z" fill="#FFFDD6"/>
<path d="M268.191 146.875L244.457 159.291L263.898 189.039L265.695 175.85L285.773 176.611L286.971 171.208L267.38 160.651L268.191 146.875Z" fill="#FFFDD6"/>
<path d="M211.801 264.047L207.272 271.496L151.119 274.404L151.281 271.983L205.5 269.225L211.801 264.047Z" fill="#B50000"/>
<path d="M196.404 268.827C184.611 242.135 160.378 239.577 160.99 270.499C160.99 271.547 161.152 272.37 161.414 273.069L196.428 271.572C196.84 270.798 196.878 269.887 196.404 268.827Z" fill="#8C0000"/>
<path d="M190.913 272.182C189.578 262.262 183.414 254.912 177.137 255.748C170.861 256.597 166.855 265.319 168.19 275.24C169.525 285.16 175.69 292.51 181.966 291.674C188.243 290.825 192.249 282.103 190.913 272.182Z" fill="#33241B"/>
<path d="M188.718 273.394C187.769 266.294 183.789 260.965 179.833 261.502C175.877 262.026 173.444 268.215 174.405 275.316C175.353 282.416 179.334 287.732 183.29 287.208C187.245 286.683 189.678 280.494 188.718 273.394Z" fill="#FFF1CF"/>
<mask id="mask0_662_265" style="mask-type:luminance" maskUnits="userSpaceOnUse" x="105" y="154" width="75" height="71">
<path d="M119.985 167.556L105.123 224.358L179.557 220.664L179.656 154.953L119.985 167.556Z" fill="white"/>
</mask>
<g mask="url(#mask0_662_265)">
<path d="M99.5865 211.368C91.9497 221.9 101.121 237.884 111.928 231.134C122.734 224.395 110.717 208.96 99.5865 211.368ZM110.63 229.15C102.032 234.515 94.7324 221.8 100.809 213.427C109.669 211.505 119.227 223.784 110.63 229.15Z" fill="#8C0000"/>
</g>
<mask id="mask1_662_265" style="mask-type:luminance" maskUnits="userSpaceOnUse" x="108" y="154" width="76" height="71">
<path d="M123.797 167.556L108.936 224.358L183.369 220.664L183.469 154.953L123.797 167.556Z" fill="white"/>
</mask>
<g mask="url(#mask1_662_265)">
<path d="M110.656 214.688L106.65 222.524L107.724 223.435L110.656 214.688Z" fill="#8C0000"/>
</g>
<path d="M175.502 217.664L136.507 236.731L47 241.847L105.948 220.809L175.502 217.664Z" fill="#FF3333"/>
<path d="M108.206 220.734L119.087 171.457L117.178 171.295L105.623 220.872L108.206 220.734Z" fill="#8C0000"/>
<path d="M118.427 167.926L104.376 226.05L98.3613 229.257L115.032 168.537L118.427 167.926Z" fill="#FF3333"/>
<path d="M118.313 171.369L113.684 220.684L116.054 220.309L119.611 171.943L118.313 171.369Z" fill="#8C0000"/>
<path d="M174.429 162.211L171.933 180.305L124.203 171.57L174.429 162.211Z" fill="#FFFDD6"/>
<path d="M172.146 183.836L118.589 172.506L117.029 180.617L170.898 200.894L172.146 183.836Z" fill="#FFFDD6"/>
<path d="M212.725 54.9582L214.334 167.713L217.254 54.7461L212.725 54.9582Z" fill="#FFFDD6"/>
<path d="M185.123 177.223L189.49 204.575L187.706 213.797L185.123 177.223Z" fill="#FF5454"/>
<path d="M172.021 218.139H176.301L179.758 154.486L116.006 168.412L116.33 169.697L176.85 157.244L172.021 218.139Z" fill="#FF3333"/>
<path d="M211.428 237.78C209.819 234.536 199.649 234.249 198.264 237.78C199.649 241.599 210.043 241.873 211.428 237.78Z" fill="#8C0000"/>
<path d="M197.839 236.645L211.64 237.293L211.752 238.591L197.727 238.055L197.839 236.645Z" fill="#FF8A8A"/>
<path d="M188.792 273.106C187.968 267.016 184.562 262.449 181.18 262.911C177.786 263.36 175.702 268.676 176.525 274.753C177.337 280.842 180.756 285.397 184.15 284.948C187.531 284.499 189.615 279.183 188.792 273.106Z" fill="#33241B"/>
<path d="M275.255 267.191C274.569 262.062 271.687 258.206 268.829 258.593C265.972 258.98 264.212 263.447 264.898 268.588C265.585 273.717 268.467 277.573 271.325 277.186C274.195 276.799 275.954 272.319 275.255 267.191Z" fill="#33241B"/>
<path d="M176.45 220.984L143.096 233.787L176.762 216.242L176.45 220.984Z" fill="#FF0000"/>
<path d="M93.4688 226.363L100.419 237.905L113.334 237.269L97.7364 224.154L93.4688 226.363Z" fill="#FF5454"/>
<path d="M47.5488 241.773L95.8152 238.441L89.5136 227.148L47.5488 241.773Z" fill="#FF5454"/>
<path opacity="0.4" d="M179.246 222.605L183.164 250.395L184.624 251.243L180.719 221.932L179.246 222.605Z" fill="#FF3333"/>
<path opacity="0.4" d="M216.431 225.775L180.831 224.203L180.406 221.932L216.119 224.352L216.431 225.775Z" fill="#FF3333"/>
<path d="M237.096 265.407L238.144 268.776L253.118 269.2L253.742 263.922L237.096 265.407Z" fill="#443225"/>
<path d="M334.988 121.669L324.02 120.271L325.03 128.782L338.145 142.059L350 136.531L334.988 121.669ZM330.833 126.561C330.346 127.01 329.123 126.473 328.1 125.363C327.077 124.252 326.64 122.979 327.127 122.53C327.613 122.081 328.836 122.617 329.872 123.728C330.883 124.851 331.319 126.111 330.833 126.561Z" fill="#A3924D"/>
<path d="M334.515 121.993L323.547 120.596L324.558 129.106L337.672 142.383L349.527 136.855L334.515 121.993ZM330.36 126.885C329.873 127.334 328.651 126.797 327.627 125.687C326.604 124.576 326.167 123.304 326.654 122.854C327.141 122.405 328.364 122.942 329.387 124.052C330.41 125.163 330.847 126.423 330.36 126.885Z" fill="#FFEC8D"/>
<path d="M327.601 123.128C320.676 120.396 320.464 112.559 320.289 106.258C320.164 101.553 320.052 97.4853 317.307 96.7989L317.456 96.1875C320.663 96.9861 320.776 101.279 320.913 106.233C321.088 112.659 321.287 119.959 327.826 122.542L327.601 123.128Z" fill="#673B00"/>
<path d="M112.961 97.9595L114.446 103.65L115.918 102.814L114.234 96.6992L112.961 97.9595Z" fill="#FFFDD6"/>
<path d="M115.281 106.82L116.754 112.51L118.239 111.661L116.542 105.547L115.281 106.82Z" fill="#FFFDD6"/>
<path d="M118.027 116.302L119.5 121.992L120.972 121.144L119.288 115.029L118.027 116.302Z" fill="#FFFDD6"/>
<path d="M119.711 125.999L121.183 131.689L122.656 130.841L120.971 124.727L119.711 125.999Z" fill="#FFFDD6"/>
<path d="M121.82 136.319L123.293 142.009L124.765 141.173L123.081 135.059L121.82 136.319Z" fill="#FFFDD6"/>
<path d="M124.129 146.439L125.614 152.129L127.086 151.28L125.402 145.166L124.129 146.439Z" fill="#FFFDD6"/>
<path d="M126.662 157.182L128.135 162.872L129.619 162.024L127.922 155.922L126.662 157.182Z" fill="#FFFDD6"/>
<path d="M210.492 156.882L210.53 162.771L212.164 162.31L212.04 155.971L210.492 156.882Z" fill="#FFFDD6"/>
<path d="M210.291 147.199L210.316 153.076L211.951 152.614L211.826 146.275L210.291 147.199Z" fill="#FFFDD6"/>
<path d="M209.867 137.503L209.892 143.381L211.539 142.919L211.402 136.58L209.867 137.503Z" fill="#FFFDD6"/>
<path d="M209.867 126.747L209.892 132.637L211.539 132.175L211.402 125.836L209.867 126.747Z" fill="#FFFDD6"/>
<path d="M210.08 115.792L210.105 121.669L211.752 121.22L211.615 114.881L210.08 115.792Z" fill="#FFFDD6"/>
<path d="M209.656 105.472L209.694 111.35L211.328 110.888L211.191 104.549L209.656 105.472Z" fill="#FFFDD6"/>
<path d="M209.443 95.1394L209.481 101.017L211.115 100.568L210.978 94.2285L209.443 95.1394Z" fill="#FFFDD6"/>
<path d="M209.23 84.3961L209.268 90.2734L210.903 89.8117L210.765 83.4727L209.23 84.3961Z" fill="#FFFDD6"/>
<path d="M208.807 73.0152L208.844 78.8925L210.479 78.4308L210.354 72.0918L208.807 73.0152Z" fill="#FFFDD6"/>
<path d="M209.23 61.6343L209.268 67.5117L210.903 67.05L210.765 60.7109L209.23 61.6343Z" fill="#FFFDD6"/>
<path opacity="0.3" d="M205.139 163.607L214.123 168.349L213.075 207.968L205.139 163.607Z" fill="#673B00"/>
<path d="M172.183 274.966C171.172 268.178 172.645 261.988 175.652 258.457C171.11 260.928 168.514 267.641 169.625 275.128C170.698 282.316 174.866 288.006 179.708 289.591C176.076 286.758 173.144 281.38 172.183 274.966Z" fill="#FFECFB"/>
<path d="M261.603 268.627C260.779 263.087 261.977 258.02 264.435 255.15C260.729 257.159 258.596 262.65 259.506 268.764C260.38 274.629 263.787 279.284 267.742 280.569C264.772 278.26 262.377 273.868 261.603 268.627Z" fill="#FFECFB"/>
<path d="M62.8597 253.353C62.2483 248.499 59.6403 244.83 57.0199 245.155C54.3994 245.479 52.7772 249.684 53.3887 254.538C54.0001 259.393 56.6081 263.061 59.2285 262.737C61.8365 262.425 63.4712 258.22 62.8597 253.353Z" fill="#C9B6A9"/>
<path d="M83.6738 240.425L83.9858 237.742L87.7792 240.113L83.6738 240.425Z" fill="#B50000"/>
<path d="M83.9863 237.793L124.928 220.984L87.1434 239.952L83.9863 237.793Z" fill="#B50000"/>
<path opacity="0.8" d="M57.432 254.076C57.17 251.505 57.6941 249.222 58.6424 248.386C58.0934 247.662 57.4819 247.275 56.858 247.375C55.2982 247.624 54.3374 250.769 54.6993 254.4C55.0611 258.031 56.6209 260.777 58.1807 260.527C58.7672 260.44 59.2539 259.941 59.6407 259.167C58.5925 258.58 57.6816 256.571 57.432 254.076Z" fill="#FFFDD6"/>
<path opacity="0.8" d="M60.8388 253.627C60.714 251.693 60.0277 250.17 59.3289 250.208C58.6301 250.258 58.156 251.867 58.2932 253.801C58.418 255.736 59.1043 257.258 59.8031 257.221C60.5019 257.158 60.9761 255.561 60.8388 253.627Z" fill="#FFFDD6"/>
<path d="M134.175 250.358C132.266 244.469 127.187 240.538 122.857 241.599C118.515 242.647 116.543 248.287 118.465 254.177C120.374 260.067 125.453 263.997 129.783 262.949C134.125 261.888 136.084 256.261 134.175 250.358Z" fill="#C9B6A9"/>
<path opacity="0.8" d="M125.178 252.592C124.279 249.447 124.741 246.477 126.176 245.204C125.128 244.443 124.017 244.119 122.981 244.393C120.398 245.08 119.35 249.235 120.623 253.665C121.896 258.095 125.015 261.127 127.598 260.44C128.559 260.178 129.308 259.442 129.807 258.394C127.948 257.907 126.051 255.636 125.178 252.592Z" fill="#FFFDD6"/>
<path opacity="0.8" d="M130.83 251.193C130.256 248.822 128.846 247.088 127.661 247.313C126.488 247.55 126.001 249.658 126.575 252.029C127.149 254.4 128.559 256.135 129.744 255.91C130.917 255.673 131.404 253.564 130.83 251.193Z" fill="#FFFDD6"/>
<path opacity="0.4" d="M77.9453 244.406L79.1682 265.756H112.223L103.825 243.807L77.9453 244.406Z" fill="#FF3333"/>
<path d="M82.1271 246.303L80.168 246.328L80.9915 264.297L84.4855 264.134L82.1271 246.303Z" fill="#8C0000"/>
<path d="M87.4554 246.24L84.2734 246.278L87.4804 263.984L90.3878 263.847L87.4554 246.24Z" fill="#8C0000"/>
<path d="M94.2568 246.152L90.0391 246.202L93.3209 263.697L97.2141 263.51L94.2568 246.152Z" fill="#8C0000"/>
<path d="M101.406 263.31L107.296 263.023L101.917 246.053L98.2363 246.09L101.406 263.31Z" fill="#8C0000"/>
<path d="M49.0347 265.793L142.897 266.791L156.087 266.916L148.188 277.573L49.3592 276.25L47.2129 271.62L49.0347 265.793Z" fill="#E9FFFE"/>
<path opacity="0.5" d="M104.501 271.895L105.187 266.293L75.5762 266.043L77.3357 271.671L47.2129 271.409L49.3592 276.437L148.512 277.748L154.889 272.295L104.501 271.895Z" fill="#431F00"/>
<path d="M148.599 267.79L146.777 272.682L148.2 277.586L156.598 275.252L156.161 267.229L148.599 267.79Z" fill="#697F7E"/>
<path d="M78.4824 264.297L80.2169 274.255H101.355L102.765 262.562L78.4824 264.297Z" fill="#E9FFFE"/>
<path d="M80.7168 266.043L81.7775 271.721L100.108 272.208L101.057 264.596L80.7168 266.043Z" fill="#FF6561"/>
<path d="M187.768 273.242C187.082 268.176 184.362 264.345 181.691 264.707C179.021 265.069 177.399 269.474 178.085 274.54C178.771 279.619 181.492 283.437 184.162 283.075C186.833 282.714 188.455 278.309 187.768 273.242Z" fill="#B7AC95"/>
<path d="M275.117 267.292C274.53 262.924 272.084 259.655 269.651 259.979C267.218 260.304 265.72 264.11 266.307 268.477C266.893 272.844 269.339 276.114 271.772 275.789C274.206 275.465 275.703 271.659 275.117 267.292Z" fill="#B7AC95"/>
</svg>
