<svg width="89" height="89" viewBox="0 0 89 89" fill="none" xmlns="http://www.w3.org/2000/svg">
<g id="property-manager-landlord-executive-ceo-svgrepo-com 1">
<path id="Vector" d="M44.0654 35.8225H41.1521L32.6519 49.0369L31.6263 39.1426L33.0239 35.7912H26.7556L28.1532 39.1426L27.065 49.0995L18.5648 35.8225H15.1509C7.1791 35.8225 0.695312 42.3376 0.695312 50.278V85.5234H10.8086V53.1949H10.7773C10.7773 52.3257 11.3371 51.7382 12.2375 51.7382C13.1345 51.7382 13.6942 52.2945 13.6942 53.1949V85.5234H45.4943V53.1949C45.4943 52.3257 46.054 51.7382 46.951 51.7382C47.8201 51.7382 48.4111 52.2945 48.4111 53.1949V85.5234H58.5245V50.278C58.5245 42.3063 52.0094 35.8225 44.0654 35.8225ZM29.4221 9.82477C23.0322 9.82477 17.8521 15.0048 17.8521 21.3948C17.8521 27.7882 23.0322 32.9682 29.4221 32.9682C35.8155 32.9682 40.9956 27.7882 40.9956 21.3948C40.9956 15.0048 35.8155 9.82477 29.4221 9.82477ZM81.6992 5.91016V3.47656H68.1406V5.91016H61.1875V40.6758H72.3125V33.375H77.1797V40.6758H88.3047V5.91016H81.6992ZM70.2266 28.1602H65.707V23.6406H70.2266V28.1602ZM70.2266 21.5547H65.707V17.0352H70.2266V21.5547ZM70.2266 14.9492H65.707V10.4297H70.2266V14.9492ZM77.1797 28.1602H72.3125V23.6406H77.1797V28.1602ZM77.1797 21.5547H72.3125V17.0352H77.1797V21.5547ZM77.1797 14.9492H72.3125V10.4297H77.1797V14.9492ZM83.7852 28.1602H79.2656V23.6406H83.7852V28.1602ZM83.7852 21.5547H79.2656V17.0352H83.7852V21.5547ZM83.7852 14.9492H79.2656V10.4297H83.7852V14.9492Z" fill="#FF0000"/>
</g>
</svg>
